<svg width="95" height="92" viewBox="0 0 95 92" fill="none" xmlns="http://www.w3.org/2000/svg">
<rect width="95" height="92" fill="white"/>
<path d="M47.4847 77.28C42.5247 77.28 38.1247 76.1333 34.2847 73.84C30.498 71.5467 27.5114 68.2133 25.3247 63.84C23.1914 59.4667 22.1247 54.1867 22.1247 48C22.1247 41.8133 23.1914 36.5333 25.3247 32.16C27.5114 27.7867 30.498 24.4533 34.2847 22.16C38.1247 19.8667 42.5247 18.72 47.4847 18.72C52.4447 18.72 56.818 19.8667 60.6047 22.16C64.4447 24.4533 67.4314 27.7867 69.5647 32.16C71.7514 36.5333 72.8447 41.8133 72.8447 48C72.8447 54.1867 71.7514 59.4667 69.5647 63.84C67.4314 68.2133 64.4447 71.5467 60.6047 73.84C56.818 76.1333 52.4447 77.28 47.4847 77.28ZM47.4847 62.16C48.7114 62.16 49.8047 61.7333 50.7647 60.88C51.7247 60.0267 52.4714 58.56 53.0047 56.48C53.5914 54.4 53.8847 51.5733 53.8847 48C53.8847 44.3733 53.5914 41.5467 53.0047 39.52C52.4714 37.44 51.7247 35.9733 50.7647 35.12C49.8047 34.2667 48.7114 33.84 47.4847 33.84C46.258 33.84 45.1647 34.2667 44.2047 35.12C43.2447 35.9733 42.4714 37.44 41.8847 39.52C41.3514 41.5467 41.0847 44.3733 41.0847 48C41.0847 51.5733 41.3514 54.4 41.8847 56.48C42.4714 58.56 43.2447 60.0267 44.2047 60.88C45.1647 61.7333 46.258 62.16 47.4847 62.16Z" fill="#E4DCD7"/>
</svg>
