<svg width="128" height="121" viewBox="0 0 128 121" fill="none" xmlns="http://www.w3.org/2000/svg">
<path fill-rule="evenodd" clip-rule="evenodd" d="M63.9756 13.4707C57.3451 13.4707 51.97 18.5518 51.97 24.8197V38.6033H75.9812V24.8197C75.9812 18.5518 70.6061 13.4707 63.9756 13.4707ZM63.9756 18.2227C60.4509 18.2227 57.5937 20.9237 57.5937 24.2556V31.2932H70.3574V24.2556C70.3574 20.9237 67.5002 18.2227 63.9756 18.2227Z" fill="#FFC93E"/>
<path d="M24.8528 73.4148C25.1284 70.9179 27.3549 69.0214 30.0106 69.0214C32.8747 69.0214 35.1965 71.2162 35.1965 73.9236V85.8279C35.1965 88.8774 32.5813 91.3495 29.3554 91.3495C25.8896 91.3495 23.1861 88.5133 23.5458 85.2548L24.8528 73.4148Z" fill="white"/>
<path fill-rule="evenodd" clip-rule="evenodd" d="M37.1964 73.9236V85.8279C37.1964 89.9215 33.6859 93.2401 29.3553 93.2401C24.7029 93.2401 21.0737 89.4328 21.5566 85.0586L22.8635 73.2186C23.2455 69.7587 26.3307 67.1307 30.0106 67.1307C33.9792 67.1307 37.1964 70.172 37.1964 73.9236ZM30.0106 69.0214C27.3549 69.0214 25.1284 70.9179 24.8527 73.4148L23.5458 85.2548C23.1861 88.5133 25.8896 91.3495 29.3553 91.3495C32.5813 91.3495 35.1964 88.8774 35.1964 85.8279V73.9236C35.1964 71.2162 32.8746 69.0214 30.0106 69.0214Z" fill="#FFC93E"/>
<path d="M103.147 73.4148C102.872 70.9179 100.645 69.0214 97.9895 69.0214C95.1254 69.0214 92.8037 71.2162 92.8037 73.9236V85.8279C92.8037 88.8774 95.4188 91.3495 98.6447 91.3495C102.11 91.3495 104.814 88.5133 104.454 85.2548L103.147 73.4148Z" fill="white"/>
<path fill-rule="evenodd" clip-rule="evenodd" d="M90.8037 73.9236V85.8279C90.8037 89.9215 94.3143 93.2401 98.6448 93.2401C103.297 93.2401 106.926 89.4328 106.444 85.0586L105.137 73.2186C104.755 69.7587 101.669 67.1307 97.9895 67.1307C94.0209 67.1307 90.8037 70.172 90.8037 73.9236ZM97.9895 69.0214C100.645 69.0214 102.872 70.9179 103.147 73.4148L104.454 85.2548C104.814 88.5133 102.111 91.3495 98.6448 91.3495C95.4188 91.3495 92.8037 88.8774 92.8037 85.8279V73.9236C92.8037 71.2162 95.1255 69.0214 97.9895 69.0214Z" fill="#FFC93E"/>
<path d="M32.8133 49.5894C34.0315 35.8782 46.1596 25.3359 60.7151 25.3359H67.4152C81.9706 25.3359 94.0987 35.8782 95.3169 49.5894L98.8264 89.0896C99.7082 99.0139 91.425 107.529 80.8896 107.529H47.2406C36.7053 107.529 28.422 99.0139 29.3038 89.0896L32.8133 49.5894Z" fill="white"/>
<path fill-rule="evenodd" clip-rule="evenodd" d="M60.7151 23.4453H67.4152C83.0103 23.4453 96.0047 34.7406 97.3099 49.4312L100.819 88.9314C101.799 99.9584 92.5956 109.42 80.8896 109.42H47.2407C35.5347 109.42 26.3311 99.9584 27.3108 88.9314L30.8204 49.4311C32.1256 34.7406 45.12 23.4453 60.7151 23.4453ZM60.7151 25.3359C46.1596 25.3359 34.0316 35.8782 32.8133 49.5894L29.3038 89.0896C28.4221 99.0139 36.7053 107.529 47.2407 107.529H80.8896C91.425 107.529 99.7082 99.0139 98.8264 89.0896L95.3169 49.5894C94.0987 35.8782 81.9706 25.3359 67.4152 25.3359H60.7151Z" fill="#FFC93E"/>
<path d="M50.7473 43.4169C50.7473 41.3285 52.5382 39.6356 54.7473 39.6356H73.3829C75.5921 39.6356 77.3829 41.3285 77.3829 43.4169V47.195C77.3829 49.2833 75.5921 50.9762 73.3829 50.9762H54.7473C52.5382 50.9762 50.7473 49.2833 50.7473 47.195V43.4169Z" fill="#FFC93E"/>
<path d="M44.0402 97.4895C45.8645 99.7869 48.77 101.273 52.0427 101.273H83.162C88.6848 101.273 93.162 97.0408 93.162 91.82V80.5239C93.162 77.4302 91.5898 74.6835 89.1595 72.959C89.3878 73.6617 89.5106 74.4081 89.5106 75.1816V90.2589C89.5106 94.4356 85.9289 97.8214 81.5106 97.8214H46.3914C45.5731 97.8214 44.7836 97.7053 44.0402 97.4895Z" fill="#FFC93E"/>
<path fill-rule="evenodd" clip-rule="evenodd" d="M46.3914 65.7285H81.5106C87.0335 65.7285 91.5106 69.9608 91.5106 75.1816V90.2589C91.5106 95.4797 87.0335 99.7121 81.5106 99.7121H46.3914C40.8685 99.7121 36.3914 95.4798 36.3914 90.2589V75.1816C36.3914 69.9608 40.8685 65.7285 46.3914 65.7285ZM46.3914 67.6191C41.9731 67.6191 38.3914 71.005 38.3914 75.1816V90.2589C38.3914 94.4356 41.9731 97.8214 46.3914 97.8214H81.5106C85.9289 97.8214 89.5106 94.4356 89.5106 90.2589V75.1816C89.5106 71.005 85.9289 67.6191 81.5106 67.6191H46.3914Z" fill="#FFC93E"/>
<path fill-rule="evenodd" clip-rule="evenodd" d="M37.2772 79.1606C37.2772 78.6386 37.7249 78.2153 38.2772 78.2153H89.8529C90.4052 78.2153 90.8529 78.6386 90.8529 79.1606C90.8529 79.6827 90.4052 80.106 89.8529 80.106H38.2772C37.7249 80.106 37.2772 79.6827 37.2772 79.1606Z" fill="#FFC93E"/>
<path d="M75.3224 77.3555C75.4356 76.6422 76.171 76.1089 77.0414 76.1089H77.3581C78.2284 76.1089 78.9639 76.6422 79.077 77.3555L80.1691 84.2378C80.4043 85.72 79.0084 87.0349 77.1997 87.0349C75.3911 87.0349 73.9952 85.72 74.2304 84.2378L75.3224 77.3555Z" fill="#FFC93E"/>
</svg>
