<svg width="86" height="97" viewBox="0 0 86 97" fill="none" xmlns="http://www.w3.org/2000/svg">
<path fill-rule="evenodd" clip-rule="evenodd" d="M42.9755 0.470703C36.345 0.470703 30.9699 5.55183 30.9699 11.8197V25.6033H54.9811V11.8197C54.9811 5.55184 49.606 0.470703 42.9755 0.470703ZM42.9755 5.22268C39.4509 5.22268 36.5936 7.92369 36.5936 11.2556V18.2932H49.3574V11.2556C49.3574 7.92369 46.5001 5.22268 42.9755 5.22268Z" fill="#FFC93E"/>
<path d="M3.85269 60.4148C4.12831 57.9179 6.35483 56.0214 9.01053 56.0214C11.8746 56.0214 14.1964 58.2162 14.1964 60.9236V72.8279C14.1964 75.8774 11.5812 78.3495 8.35529 78.3495C4.88954 78.3495 2.18605 75.5133 2.54574 72.2548L3.85269 60.4148Z" fill="white"/>
<path fill-rule="evenodd" clip-rule="evenodd" d="M16.1964 60.9236V72.8279C16.1964 76.9215 12.6858 80.2401 8.35528 80.2401C3.70286 80.2401 0.0736881 76.4328 0.556537 72.0586L1.86348 60.2186C2.2454 56.7587 5.33062 54.1307 9.01052 54.1307C12.9792 54.1307 16.1964 57.172 16.1964 60.9236ZM9.01052 56.0214C6.35483 56.0214 4.1283 57.9179 3.85268 60.4148L2.54574 72.2548C2.18605 75.5133 4.88953 78.3495 8.35528 78.3495C11.5812 78.3495 14.1964 75.8774 14.1964 72.8279V60.9236C14.1964 58.2162 11.8746 56.0214 9.01052 56.0214Z" fill="#FFC93E"/>
<path d="M82.1473 60.4148C81.8717 57.9179 79.6451 56.0214 76.9894 56.0214C74.1254 56.0214 71.8036 58.2162 71.8036 60.9236V72.8279C71.8036 75.8774 74.4187 78.3495 77.6447 78.3495C81.1104 78.3495 83.8139 75.5133 83.4542 72.2548L82.1473 60.4148Z" fill="white"/>
<path fill-rule="evenodd" clip-rule="evenodd" d="M69.8036 60.9236V72.8279C69.8036 76.9215 73.3142 80.2401 77.6447 80.2401C82.2971 80.2401 85.9263 76.4328 85.4434 72.0586L84.1365 60.2186C83.7546 56.7587 80.6693 54.1307 76.9894 54.1307C73.0208 54.1307 69.8036 57.172 69.8036 60.9236ZM76.9894 56.0214C79.6451 56.0214 81.8717 57.9179 82.1473 60.4148L83.4542 72.2548C83.8139 75.5133 81.1104 78.3495 77.6447 78.3495C74.4187 78.3495 71.8036 75.8774 71.8036 72.8279V60.9236C71.8036 58.2162 74.1254 56.0214 76.9894 56.0214Z" fill="#FFC93E"/>
<path d="M11.8133 36.5894C13.0315 22.8782 25.1596 12.3359 39.715 12.3359H46.4151C60.9706 12.3359 73.0986 22.8782 74.3168 36.5894L77.8264 76.0896C78.7081 86.0139 70.4249 94.5293 59.8895 94.5293H26.2406C15.7052 94.5293 7.42198 86.0139 8.30374 76.0896L11.8133 36.5894Z" fill="white"/>
<path fill-rule="evenodd" clip-rule="evenodd" d="M39.715 10.4453H46.4151C62.0103 10.4453 75.0046 21.7406 76.3098 36.4312L79.8194 75.9314C80.7991 86.9584 71.5955 96.42 59.8895 96.42H26.2406C14.5346 96.42 5.33104 86.9584 6.31077 75.9314L9.8203 36.4311C11.1255 21.7406 24.1199 10.4453 39.715 10.4453ZM39.715 12.3359C25.1596 12.3359 13.0315 22.8782 11.8133 36.5894L8.30375 76.0896C7.422 86.0139 15.7052 94.5293 26.2406 94.5293H59.8895C70.4249 94.5293 78.7081 86.0139 77.8264 76.0896L74.3168 36.5894C73.0986 22.8782 60.9706 12.3359 46.4151 12.3359H39.715Z" fill="#FFC93E"/>
<path d="M29.7473 30.4169C29.7473 28.3285 31.5381 26.6356 33.7473 26.6356H52.3829C54.592 26.6356 56.3829 28.3285 56.3829 30.4169V34.195C56.3829 36.2833 54.592 37.9762 52.3829 37.9762H33.7473C31.5381 37.9762 29.7473 36.2833 29.7473 34.195V30.4169Z" fill="#FFC93E"/>
<path d="M23.0401 84.4895C24.8644 86.7869 27.77 88.2731 31.0427 88.2731H62.162C67.6848 88.2731 72.162 84.0408 72.162 78.82V67.5239C72.162 64.4302 70.5898 61.6835 68.1595 59.959C68.3878 60.6617 68.5106 61.4081 68.5106 62.1816V77.2589C68.5106 81.4356 64.9289 84.8214 60.5106 84.8214H25.3913C24.5731 84.8214 23.7836 84.7053 23.0401 84.4895Z" fill="#FFC93E"/>
<path fill-rule="evenodd" clip-rule="evenodd" d="M25.3913 52.7285H60.5106C66.0334 52.7285 70.5106 56.9608 70.5106 62.1816V77.2589C70.5106 82.4797 66.0334 86.7121 60.5106 86.7121H25.3913C19.8685 86.7121 15.3913 82.4798 15.3913 77.2589V62.1816C15.3913 56.9608 19.8685 52.7285 25.3913 52.7285ZM25.3913 54.6191C20.973 54.6191 17.3913 58.005 17.3913 62.1816V77.2589C17.3913 81.4356 20.973 84.8214 25.3913 84.8214H60.5106C64.9289 84.8214 68.5106 81.4356 68.5106 77.2589V62.1816C68.5106 58.005 64.9289 54.6191 60.5106 54.6191H25.3913Z" fill="#FFC93E"/>
<path fill-rule="evenodd" clip-rule="evenodd" d="M16.2772 66.1606C16.2772 65.6386 16.7249 65.2153 17.2772 65.2153H68.8529C69.4052 65.2153 69.8529 65.6386 69.8529 66.1606C69.8529 66.6827 69.4052 67.106 68.8529 67.106H17.2772C16.7249 67.106 16.2772 66.6827 16.2772 66.1606Z" fill="#FFC93E"/>
<path d="M54.3224 64.3555C54.4355 63.6422 55.171 63.1089 56.0413 63.1089H56.358C57.2284 63.1089 57.9638 63.6422 58.077 64.3555L59.169 71.2378C59.4042 72.72 58.0083 74.0349 56.1997 74.0349C54.391 74.0349 52.9951 72.72 53.2303 71.2378L54.3224 64.3555Z" fill="#FFC93E"/>
</svg>
