<svg width="131" height="113" viewBox="0 0 131 113" fill="none" xmlns="http://www.w3.org/2000/svg">
<path d="M68.8904 19.1323L119.568 11.7713C123.909 11.1407 127.834 14.4246 127.98 18.8091L130.743 102.003C130.875 105.993 127.803 109.36 123.818 109.593L70.378 112.72C66.1523 112.967 62.5898 109.607 62.5898 105.374V26.4143C62.5898 22.7589 65.273 19.6577 68.8904 19.1323Z" fill="#FFC93E"/>
<path d="M62.1096 19.1323L11.4322 11.7713C7.09094 11.1407 3.16576 14.4246 3.02015 18.8091L0.257249 102.003C0.12476 105.993 3.19702 109.36 7.18178 109.593L60.622 112.72C64.8477 112.967 68.4102 109.607 68.4102 105.374V26.4143C68.4102 22.7589 65.7269 19.6577 62.1096 19.1323Z" fill="#FFC93E"/>
<path d="M67.7272 16.5296L117.457 8.14712C118.925 7.89965 120.273 9.0066 120.316 10.4948L122.91 100.063C122.948 101.38 121.937 102.493 120.622 102.581L68.2989 106.089C66.8829 106.183 65.6821 105.06 65.6821 103.641V18.9483C65.6821 17.751 66.5465 16.7286 67.7272 16.5296Z" fill="white"/>
<path fill-rule="evenodd" clip-rule="evenodd" d="M117.049 5.72844L67.3195 14.1109C64.9582 14.509 63.2293 16.5537 63.2293 18.9483V103.641C63.2293 106.48 65.6309 108.726 68.463 108.536L120.786 105.028C123.417 104.852 125.438 102.627 125.361 99.9917L122.768 10.4238C122.682 7.4474 119.986 5.2335 117.049 5.72844ZM117.457 8.14712L67.7272 16.5296C66.5465 16.7286 65.6821 17.751 65.6821 18.9483V103.641C65.6821 105.06 66.8829 106.183 68.2989 106.089L120.622 102.581C121.937 102.493 122.948 101.38 122.91 100.063L120.316 10.4948C120.273 9.0066 118.925 7.89965 117.457 8.14712Z" fill="#FFC93E"/>
<path d="M68.6219 16.3326L111.317 2.83721C112.87 2.34641 114.461 3.47719 114.508 5.10498L117.097 94.5167C117.132 95.7191 116.289 96.7692 115.108 96.9964L69.8243 105.703C68.3116 105.994 66.9084 104.835 66.9084 103.295V18.6714C66.9084 17.6015 67.6018 16.6551 68.6219 16.3326Z" fill="white"/>
<path fill-rule="evenodd" clip-rule="evenodd" d="M110.578 0.498399L67.8827 13.9938C65.8424 14.6387 64.4556 16.5316 64.4556 18.6713V103.294C64.4556 106.375 67.262 108.694 70.2874 108.112L115.571 99.405C117.934 98.9507 119.618 96.8504 119.549 94.4457L116.96 5.03393C116.866 1.77835 113.684 -0.483207 110.578 0.498399ZM111.317 2.83715L68.6219 16.3326C67.6018 16.655 66.9084 17.6015 66.9084 18.6713V103.294C66.9084 104.835 68.3116 105.994 69.8243 105.703L115.108 96.9963C116.289 96.7692 117.132 95.719 117.097 94.5166L114.508 5.10491C114.461 3.47712 112.87 2.34634 111.317 2.83715Z" fill="#FFC93E"/>
<path d="M78.1084 11.5781L85.6385 9.12012V29.278L81.8735 26.9681L78.1084 30.7332V11.5781Z" fill="#FFC93E"/>
<path fill-rule="evenodd" clip-rule="evenodd" d="M75.6556 11.5782C75.6556 10.5168 76.3383 9.57581 77.3473 9.24645L84.8774 6.78846C85.6243 6.54464 86.4429 6.67343 87.0789 7.13484C87.7149 7.59626 88.0913 8.33444 88.0913 9.12018V29.2781C88.0913 30.1661 87.6113 30.9848 86.8364 31.4185C86.0615 31.8522 85.1128 31.8332 84.3558 31.3688L82.2398 30.0706L79.8428 32.4676C79.1413 33.1691 78.0863 33.379 77.1698 32.9993C76.2532 32.6197 75.6556 31.7253 75.6556 30.7332V11.5782ZM85.6385 29.2781L81.8735 26.9682L78.1084 30.7332V11.5782L85.6385 9.12018V29.2781Z" fill="#FFC93E"/>
<path d="M62.1837 16.5278L12.8007 8.15061C11.3316 7.9014 9.98151 9.00889 9.93866 10.4983L7.36216 100.064C7.32427 101.381 8.33402 102.493 9.64884 102.582L61.6084 106.087C63.0248 106.183 64.2263 105.06 64.2263 103.64V18.9461C64.2263 17.7497 63.3632 16.7279 62.1837 16.5278Z" fill="white"/>
<path fill-rule="evenodd" clip-rule="evenodd" d="M13.2109 5.73237L62.5939 14.1096C64.9529 14.5098 66.6791 16.5534 66.6791 18.9461V103.64C66.6791 106.479 64.2761 108.726 61.4433 108.535L9.48373 105.029C6.8541 104.852 4.83459 102.628 4.91038 99.9935L7.48688 10.4278C7.57257 7.44892 10.2727 5.23394 13.2109 5.73237ZM12.8007 8.15062L62.1837 16.5278C63.3632 16.7279 64.2263 17.7497 64.2263 18.9461V103.64C64.2263 105.06 63.0248 106.183 61.6084 106.087L9.64884 102.582C8.33402 102.493 7.32427 101.381 7.36216 100.064L9.93866 10.4983C9.98151 9.00889 11.3316 7.90141 12.8007 8.15062Z" fill="#FFC93E"/>
<path fill-rule="evenodd" clip-rule="evenodd" d="M50.5763 40.8597C52.1946 40.1419 54.0443 40.2113 55.4566 40.8781C56.0691 41.1673 56.3312 41.8982 56.042 42.5107C55.7529 43.1232 55.0219 43.3853 54.4094 43.0961C53.6379 42.7319 52.5334 42.6749 51.5708 43.1018C50.6678 43.5023 49.8213 44.3589 49.5425 45.9937C49.2656 47.6174 49.6328 49.1726 50.4435 50.2046C51.2121 51.1828 52.4626 51.8059 54.3082 51.4935C54.976 51.3805 55.609 51.8302 55.7221 52.4981C55.8351 53.1659 55.3854 53.7989 54.7175 53.9119C52.0288 54.367 49.8648 53.4382 48.5148 51.7199C47.2069 50.0552 46.7516 47.769 47.1246 45.5814C47.537 43.163 48.8983 41.6039 50.5763 40.8597Z" fill="#FFC93E"/>
<path fill-rule="evenodd" clip-rule="evenodd" d="M111.911 34.727C111.781 34.0622 111.137 33.6286 110.472 33.7585L71.3655 41.3979C70.7007 41.5277 70.2671 42.1719 70.397 42.8367C70.5268 43.5014 71.171 43.935 71.8357 43.8052L110.942 36.1658C111.607 36.0359 112.041 35.3917 111.911 34.727Z" fill="#FFC93E"/>
<path fill-rule="evenodd" clip-rule="evenodd" d="M111.911 40.3657C111.781 39.7009 111.137 39.2673 110.472 39.3972L71.3655 47.0366C70.7007 47.1665 70.2671 47.8106 70.397 48.4754C70.5268 49.1402 71.171 49.5738 71.8357 49.4439L110.942 41.8045C111.607 41.6746 112.041 41.0305 111.911 40.3657Z" fill="#FFC93E"/>
<path fill-rule="evenodd" clip-rule="evenodd" d="M111.911 63.0113C111.781 62.3466 111.137 61.913 110.472 62.0428L71.3655 69.6823C70.7007 69.8121 70.2671 70.4563 70.397 71.121C70.5268 71.7858 71.171 72.2194 71.8357 72.0896L110.942 64.4501C111.607 64.3203 112.041 63.6761 111.911 63.0113Z" fill="#FFC93E"/>
<path fill-rule="evenodd" clip-rule="evenodd" d="M111.911 46.1864C111.781 45.5216 111.137 45.088 110.472 45.2179L71.3655 52.8573C70.7007 52.9872 70.2671 53.6313 70.397 54.2961C70.5268 54.9608 71.171 55.3945 71.8357 55.2646L110.942 47.6252C111.607 47.4953 112.041 46.8511 111.911 46.1864Z" fill="#FFC93E"/>
<path fill-rule="evenodd" clip-rule="evenodd" d="M111.911 68.832C111.781 68.1673 111.137 67.7337 110.472 67.8635L71.3655 75.503C70.7007 75.6328 70.2671 76.277 70.397 76.9417C70.5268 77.6065 71.171 78.0401 71.8357 77.9102L110.942 70.2708C111.607 70.141 112.041 69.4968 111.911 68.832Z" fill="#FFC93E"/>
<path fill-rule="evenodd" clip-rule="evenodd" d="M111.911 52.2345C111.781 51.5697 111.137 51.1361 110.472 51.266L71.3655 58.9054C70.7007 59.0353 70.2671 59.6794 70.397 60.3442C70.5268 61.0089 71.171 61.4426 71.8357 61.3127L110.942 53.6733C111.607 53.5434 112.041 52.8992 111.911 52.2345Z" fill="#FFC93E"/>
<path fill-rule="evenodd" clip-rule="evenodd" d="M111.911 74.8803C111.781 74.2155 111.137 73.7819 110.472 73.9118L71.3655 81.5512C70.7007 81.6811 70.2671 82.3252 70.397 82.99C70.5268 83.6547 71.171 84.0884 71.8357 83.9585L110.942 76.3191C111.607 76.1892 112.041 75.5451 111.911 74.8803Z" fill="#FFC93E"/>
<path fill-rule="evenodd" clip-rule="evenodd" d="M94.181 84.6831C94.0659 84.0156 93.4316 83.5678 92.7641 83.6828L71.3918 87.3665C70.7244 87.4815 70.2765 88.1159 70.3916 88.7833C70.5066 89.4508 71.141 89.8987 71.8085 89.7836L93.1807 86.1C93.8482 85.9849 94.296 85.3506 94.181 84.6831Z" fill="#FFC93E"/>
<path fill-rule="evenodd" clip-rule="evenodd" d="M15.4408 61.0651C15.5027 60.3906 16.0997 59.894 16.7742 59.9559L56.4264 63.5937C57.1009 63.6556 57.5976 64.2525 57.5357 64.927C57.4738 65.6015 56.8768 66.0981 56.2024 66.0363L16.5501 62.3984C15.8756 62.3366 15.379 61.7396 15.4408 61.0651Z" fill="#FFC93E"/>
<path fill-rule="evenodd" clip-rule="evenodd" d="M15.4408 77.4309C15.5027 76.7564 16.0997 76.2598 16.7742 76.3217L56.4264 79.9595C57.1009 80.0214 57.5976 80.6183 57.5357 81.2928C57.4738 81.9673 56.8768 82.4639 56.2024 82.402L16.5501 78.7642C15.8756 78.7023 15.379 78.1054 15.4408 77.4309Z" fill="#FFC93E"/>
<path fill-rule="evenodd" clip-rule="evenodd" d="M15.4385 66.9054C15.4839 66.2296 16.0686 65.7186 16.7444 65.764L38.3894 67.2192C39.0652 67.2646 39.5762 67.8493 39.5308 68.5251C39.4854 69.2009 38.9007 69.7119 38.2249 69.6664L16.5799 68.2113C15.9041 68.1659 15.393 67.5812 15.4385 66.9054Z" fill="#FFC93E"/>
<path fill-rule="evenodd" clip-rule="evenodd" d="M15.4387 83.268C15.486 82.5923 16.0721 82.0829 16.7478 82.1302L47.8114 84.3047C48.487 84.352 48.9964 84.9381 48.9491 85.6138C48.9018 86.2894 48.3158 86.7988 47.6401 86.7515L16.5765 84.577C15.9008 84.5297 15.3914 83.9436 15.4387 83.268Z" fill="#FFC93E"/>
<path fill-rule="evenodd" clip-rule="evenodd" d="M15.4385 88.4928C15.4839 87.817 16.0686 87.306 16.7444 87.3514L38.3894 88.8066C39.0652 88.852 39.5762 89.4367 39.5308 90.1125C39.4854 90.7883 38.9007 91.2993 38.2249 91.2538L16.5799 89.7987C15.9041 89.7533 15.393 89.1686 15.4385 88.4928Z" fill="#FFC93E"/>
<path fill-rule="evenodd" clip-rule="evenodd" d="M23.5014 25.3703C24.0246 25.3953 24.4742 25.7498 24.6205 26.2527L31.8961 51.2628C32.0853 51.9131 31.7115 52.5937 31.0611 52.7829C30.4107 52.9721 29.7301 52.5983 29.541 51.9479L23.2628 30.3666L15.0332 51.0582C14.7828 51.6876 14.0697 51.9948 13.4404 51.7445C12.811 51.4942 12.5037 50.7811 12.754 50.1517L22.3033 26.1421C22.4969 25.6554 22.9782 25.3453 23.5014 25.3703Z" fill="#FFC93E"/>
<path fill-rule="evenodd" clip-rule="evenodd" d="M28.8081 42.1021C28.8081 42.7794 28.259 43.3285 27.5817 43.3285L17.3502 43.3285C16.6728 43.3285 16.1238 42.7794 16.1238 42.1021C16.1238 41.4248 16.6728 40.8757 17.3502 40.8757L27.5817 40.8757C28.259 40.8757 28.8081 41.4248 28.8081 42.1021Z" fill="#FFC93E"/>
<path fill-rule="evenodd" clip-rule="evenodd" d="M37.2197 35.4173V40.4278C37.5419 40.4405 37.8872 40.4763 38.2354 40.5295C38.7135 40.4909 39.2363 40.4066 39.73 40.2517C40.311 40.0694 40.7595 39.8172 41.051 39.5144C41.3155 39.2396 41.4969 38.8795 41.4969 38.3274C41.4969 37.2546 40.8636 36.5353 39.7057 36.0258C38.9335 35.686 38.0325 35.4989 37.2197 35.4173ZM42.0857 41.8291C42.3455 41.6528 42.5927 41.4496 42.8182 41.2153C43.5173 40.4891 43.9497 39.5214 43.9497 38.3274C43.9497 35.9078 42.3397 34.505 40.6935 33.7807C39.0738 33.068 37.1964 32.8845 35.9602 32.9179C35.296 32.9359 34.7669 33.4794 34.7669 34.1439V51.7874C34.7669 52.3301 35.1236 52.8083 35.6438 52.9629C36.9722 53.3579 39.1434 53.5022 41.1067 52.8774C42.1065 52.5592 43.1044 52.0246 43.898 51.1684C44.7031 50.2999 45.2424 49.1592 45.3976 47.7369C45.7215 44.7683 43.9594 42.8907 42.0857 41.8291ZM37.2197 43.0022C37.495 43.0125 37.7955 43.0115 38.1114 42.9955C38.8489 43.1295 39.7042 43.3778 40.4929 43.7615C42.1029 44.5448 43.1512 45.7113 42.9593 47.4709C42.858 48.3992 42.5264 49.0401 42.0992 49.501C41.6606 49.9742 41.0649 50.3167 40.3629 50.5401C39.3081 50.8758 38.1327 50.9041 37.2197 50.7884V43.0022Z" fill="#FFC93E"/>
</svg>
