<svg width="128" height="128" viewBox="0 0 128 128" fill="none" xmlns="http://www.w3.org/2000/svg">
<rect width="128" height="128" fill="white"/>
<rect width="128" height="128" fill="#EBE6E3"/>
<path d="M58.3854 49.1962C65.245 49.1962 70.8059 54.757 70.8059 61.6166V83.3428C70.8059 90.2024 65.245 95.7633 58.3854 95.7633H45.0549L37.233 105.418C36.6912 106.087 35.6098 105.704 35.6098 104.843V95.7633H35.5763C28.7166 95.7633 23.1558 90.2024 23.1558 83.3428V61.6166C23.1558 54.757 28.7167 49.1962 35.5763 49.1962H58.3854Z" fill="#FFC93E"/>
<path d="M71.9922 28.2747C65.1325 28.2747 59.5717 33.8355 59.5717 40.6951V74.3338C59.5717 81.1934 65.1325 86.7543 71.9922 86.7543H88.2221L98.5596 99.5146C99.1014 100.183 100.183 99.8003 100.183 98.9396V86.7543H100.216C107.076 86.7543 112.637 81.1934 112.637 74.3338V40.6951C112.637 33.8355 107.076 28.2747 100.216 28.2747H71.9922Z" fill="#FFC93E"/>
<path fill-rule="evenodd" clip-rule="evenodd" d="M52.6888 45.6296C59.7515 45.6296 65.4769 51.3551 65.4769 58.4177V79.4086C65.4769 86.4713 59.7515 92.1967 52.6888 92.1967H39.7258L30.2805 103.856V92.1924C23.3724 92.0151 17.8269 86.3595 17.8269 79.4086V58.4177C17.8269 51.3551 23.5523 45.6296 30.615 45.6296H52.6888Z" fill="white"/>
<path fill-rule="evenodd" clip-rule="evenodd" d="M39.7258 92.1967H52.6888C59.7515 92.1967 65.4769 86.4713 65.4769 79.4086V58.4177C65.4769 51.355 59.7515 45.6296 52.6888 45.6296H30.615C23.5523 45.6296 17.8269 51.355 17.8269 58.4177V79.4086C17.8269 86.3595 23.3724 92.0151 30.2805 92.1924V103.856L39.7258 92.1967ZM28.4536 93.8648C21.4065 92.8199 16 86.7459 16 79.4086V58.4177C16 50.3461 22.5433 43.8027 30.615 43.8027H52.6888C60.7604 43.8027 67.3038 50.3461 67.3038 58.4177V79.4086C67.3038 87.4802 60.7604 94.0236 52.6888 94.0236H40.5969L31.7 105.006C31.2129 105.607 30.3999 105.836 29.6705 105.578C28.9411 105.319 28.4536 104.629 28.4536 103.856V93.8648Z" fill="#FFC93E"/>
<path fill-rule="evenodd" clip-rule="evenodd" d="M18.8237 58.7556C18.8237 52.1975 24.1402 46.881 30.6984 46.881H52.6051C59.1633 46.881 64.4797 52.1974 64.4797 58.7556V79.2374C64.4797 85.7956 59.1633 91.112 52.6051 91.112H39.5172C39.0128 91.112 38.6038 90.7031 38.6038 90.1986C38.6038 89.6941 39.0128 89.2852 39.5172 89.2852H52.6051C58.1543 89.2852 62.6529 84.7866 62.6529 79.2374V58.7556C62.6529 53.2064 58.1543 48.7079 52.6051 48.7079H30.6984C25.1491 48.7079 20.6506 53.2064 20.6506 58.7556V79.2374C20.6506 84.7866 25.1491 89.2852 30.6984 89.2852H31.5923C32.0968 89.2852 32.5058 89.6941 32.5058 90.1986C32.5058 90.7031 32.0968 91.112 31.5923 91.112H30.6984C24.1402 91.112 18.8237 85.7956 18.8237 79.2374V58.7556Z" fill="#FFC93E"/>
<path fill-rule="evenodd" clip-rule="evenodd" d="M25.2053 65.2663C25.2053 64.5096 25.8188 63.8961 26.5755 63.8961H37.8487C38.6055 63.8961 39.2189 64.5096 39.2189 65.2663C39.2189 66.023 38.6055 66.6364 37.8487 66.6364H26.5755C25.8188 66.6364 25.2053 66.023 25.2053 65.2663Z" fill="#FFC93E"/>
<path fill-rule="evenodd" clip-rule="evenodd" d="M25.2053 56.6025C25.2053 55.8457 25.8188 55.2323 26.5755 55.2323H53.1395C53.8962 55.2323 54.5096 55.8457 54.5096 56.6025C54.5096 57.3592 53.8962 57.9726 53.1395 57.9726H26.5755C25.8188 57.9726 25.2053 57.3592 25.2053 56.6025Z" fill="#FFC93E"/>
<path fill-rule="evenodd" clip-rule="evenodd" d="M25.2053 73.3884C25.2053 72.6317 25.8188 72.0183 26.5755 72.0183H31.2655C32.0222 72.0183 32.6356 72.6317 32.6356 73.3884C32.6356 74.1451 32.0222 74.7586 31.2655 74.7586H26.5755C25.8188 74.7586 25.2053 74.1451 25.2053 73.3884Z" fill="#FFC93E"/>
<path fill-rule="evenodd" clip-rule="evenodd" d="M65.2684 23.8269C58.2058 23.8269 52.4803 29.5523 52.4803 36.615V69.5184C52.4803 76.5811 58.2058 82.3065 65.2684 82.3065H81.1311L93.0918 97.0704V82.3022C99.9997 82.1247 105.545 76.4692 105.545 69.5184V36.615C105.545 29.5523 99.8198 23.8269 92.7571 23.8269H65.2684Z" fill="white"/>
<path fill-rule="evenodd" clip-rule="evenodd" d="M81.1311 82.3065H65.2685C58.2058 82.3065 52.4804 76.5811 52.4804 69.5184V36.615C52.4804 29.5523 58.2058 23.8269 65.2685 23.8269H92.7571C99.8198 23.8269 105.545 29.5523 105.545 36.615V69.5184C105.545 76.4691 99.9998 82.1247 93.0918 82.3022V97.0704L81.1311 82.3065ZM94.9187 83.9745C101.966 82.9296 107.372 76.8556 107.372 69.5184V36.615C107.372 28.5433 100.829 22 92.7571 22H65.2685C57.1968 22 50.6535 28.5433 50.6535 36.615V69.5184C50.6535 77.59 57.1968 84.1333 65.2685 84.1333H80.26L91.6723 98.2204C92.1594 98.8216 92.9724 99.0508 93.7018 98.7924C94.4312 98.5341 94.9187 97.8442 94.9187 97.0704V83.9745Z" fill="#FFC93E"/>
<path fill-rule="evenodd" clip-rule="evenodd" d="M53.6337 37.2119C53.6337 30.6537 58.9501 25.3373 65.5083 25.3373H92.3832C98.9413 25.3373 104.258 30.6537 104.258 37.2119V68.6526C104.258 75.2108 98.9413 80.5272 92.3831 80.5272H92.061C91.5565 80.5272 91.1476 80.1183 91.1476 79.6138C91.1476 79.1093 91.5565 78.7004 92.061 78.7004H92.3831C97.9324 78.7004 102.431 74.2018 102.431 68.6526V37.2119C102.431 31.6627 97.9324 27.1642 92.3832 27.1642H65.5083C59.9591 27.1642 55.4605 31.6627 55.4605 37.2119V68.6526C55.4605 74.2018 59.9591 78.7004 65.5083 78.7004H81.8694C82.3738 78.7004 82.7828 79.1093 82.7828 79.6138C82.7828 80.1183 82.3738 80.5272 81.8694 80.5272H65.5083C58.9501 80.5272 53.6337 75.2108 53.6337 68.6526V37.2119Z" fill="#FFC93E"/>
<path fill-rule="evenodd" clip-rule="evenodd" d="M62.1151 55.741C62.1151 54.7321 62.933 53.9142 63.942 53.9142H94.0963C95.1052 53.9142 95.9231 54.7321 95.9231 55.741C95.9231 56.75 95.1052 57.5679 94.0963 57.5679H63.942C62.933 57.5679 62.1151 56.75 62.1151 55.741Z" fill="#FFC93E"/>
<path fill-rule="evenodd" clip-rule="evenodd" d="M62.1151 46.2483C62.1151 45.2393 62.933 44.4214 63.942 44.4214H94.0963C95.1052 44.4214 95.9231 45.2393 95.9231 46.2483C95.9231 47.2572 95.1052 48.0751 94.0963 48.0751H63.942C62.933 48.0751 62.1151 47.2572 62.1151 46.2483Z" fill="#FFC93E"/>
<path fill-rule="evenodd" clip-rule="evenodd" d="M62.1149 37.115C62.1149 36.106 62.9328 35.2881 63.9418 35.2881H94.0961C95.1051 35.2881 95.923 36.106 95.923 37.115C95.923 38.1239 95.1051 38.9418 94.0961 38.9418H63.9418C62.9328 38.9418 62.1149 38.1239 62.1149 37.115Z" fill="#FFC93E"/>
<path fill-rule="evenodd" clip-rule="evenodd" d="M62.1151 64.6394C62.1151 63.6304 62.933 62.8125 63.942 62.8125H80.3114C81.3204 62.8125 82.1383 63.6304 82.1383 64.6394C82.1383 65.6483 81.3204 66.4663 80.3114 66.4663H63.942C62.933 66.4663 62.1151 65.6483 62.1151 64.6394Z" fill="#FFC93E"/>
</svg>
