<svg width="98" height="84" viewBox="0 0 98 84" fill="none" xmlns="http://www.w3.org/2000/svg">
<path d="M43.0671 27.3168C49.9267 27.3168 55.4876 32.8776 55.4876 39.7372V61.4634C55.4876 68.323 49.9267 73.8839 43.0671 73.8839H29.7366L21.9147 83.5391C21.3729 84.2078 20.2915 83.8247 20.2915 82.9641V73.8839H20.258C13.3983 73.8839 7.83752 68.323 7.83752 61.4634V39.7372C7.83752 32.8776 13.3984 27.3168 20.258 27.3168H43.0671Z" fill="#FFC93E"/>
<path d="M56.6739 6.39526C49.8142 6.39526 44.2534 11.9561 44.2534 18.8157V52.4544C44.2534 59.314 49.8142 64.8749 56.6739 64.8749H72.9038L83.2413 77.6352C83.7831 78.304 84.8645 77.9209 84.8645 77.0602V64.8749H84.8978C91.7574 64.8749 97.3182 59.314 97.3182 52.4544V18.8157C97.3182 11.9561 91.7574 6.39526 84.8978 6.39526H56.6739Z" fill="#FFC93E"/>
<path fill-rule="evenodd" clip-rule="evenodd" d="M37.3705 23.7502C44.4332 23.7502 50.1586 29.4757 50.1586 36.5383V57.5292C50.1586 64.5919 44.4332 70.3173 37.3705 70.3173H24.4075L14.9622 81.9763V70.313C8.05414 70.1357 2.50859 64.4801 2.50859 57.5293V36.5383C2.50859 29.4757 8.23401 23.7502 15.2967 23.7502H37.3705Z" fill="white"/>
<path fill-rule="evenodd" clip-rule="evenodd" d="M24.4075 70.3173H37.3705C44.4332 70.3173 50.1586 64.5919 50.1586 57.5292V36.5383C50.1586 29.4756 44.4332 23.7502 37.3705 23.7502H15.2966C8.23399 23.7502 2.50856 29.4756 2.50856 36.5383V57.5292C2.50856 64.4801 8.05411 70.1357 14.9622 70.313V81.9763L24.4075 70.3173ZM13.1353 71.9854C6.08819 70.9405 0.68169 64.8665 0.68169 57.5292V36.5383C0.68169 28.4667 7.22503 21.9233 15.2966 21.9233H37.3705C45.4421 21.9233 51.9855 28.4667 51.9855 36.5383V57.5292C51.9855 65.6008 45.4421 72.1442 37.3705 72.1442H25.2786L16.3817 83.1263C15.8946 83.7275 15.0816 83.9567 14.3522 83.6983C13.6228 83.4399 13.1353 82.7501 13.1353 81.9763V71.9854Z" fill="#FFC93E"/>
<path fill-rule="evenodd" clip-rule="evenodd" d="M3.50543 36.8763C3.50543 30.3181 8.8219 25.0016 15.3801 25.0016H37.2868C43.845 25.0016 49.1614 30.3181 49.1614 36.8762V57.358C49.1614 63.9162 43.845 69.2326 37.2868 69.2326H24.1989C23.6945 69.2326 23.2855 68.8237 23.2855 68.3192C23.2855 67.8147 23.6945 67.4058 24.1989 67.4058H37.2868C42.836 67.4058 47.3346 62.9072 47.3346 57.358V36.8762C47.3346 31.327 42.836 26.8285 37.2868 26.8285H15.3801C9.83085 26.8285 5.3323 31.327 5.3323 36.8763V57.358C5.3323 62.9072 9.83085 67.4058 15.3801 67.4058H16.274C16.7785 67.4058 17.1875 67.8147 17.1875 68.3192C17.1875 68.8237 16.7785 69.2326 16.274 69.2326H15.3801C8.8219 69.2326 3.50543 63.9162 3.50543 57.358V36.8763Z" fill="#FFC93E"/>
<path fill-rule="evenodd" clip-rule="evenodd" d="M9.88702 43.3869C9.88702 42.6302 10.5005 42.0167 11.2572 42.0167H22.5304C23.2872 42.0167 23.9006 42.6302 23.9006 43.3869C23.9006 44.1436 23.2872 44.7571 22.5304 44.7571H11.2572C10.5005 44.7571 9.88702 44.1436 9.88702 43.3869Z" fill="#FFC93E"/>
<path fill-rule="evenodd" clip-rule="evenodd" d="M9.88702 34.7231C9.88702 33.9663 10.5005 33.3529 11.2572 33.3529H37.8212C38.5779 33.3529 39.1913 33.9663 39.1913 34.7231C39.1913 35.4798 38.5779 36.0932 37.8212 36.0932H11.2572C10.5005 36.0932 9.88702 35.4798 9.88702 34.7231Z" fill="#FFC93E"/>
<path fill-rule="evenodd" clip-rule="evenodd" d="M9.88702 51.509C9.88702 50.7523 10.5005 50.1389 11.2572 50.1389H15.9472C16.7039 50.1389 17.3173 50.7523 17.3173 51.509C17.3173 52.2657 16.7039 52.8792 15.9472 52.8792H11.2572C10.5005 52.8792 9.88702 52.2657 9.88702 51.509Z" fill="#FFC93E"/>
<path fill-rule="evenodd" clip-rule="evenodd" d="M49.9501 1.94751C42.8875 1.94751 37.162 7.67294 37.162 14.7356V47.639C37.162 54.7017 42.8875 60.4271 49.9501 60.4271H65.8128L77.7735 75.191V60.4228C84.6814 60.2453 90.2269 54.5898 90.2269 47.639V14.7356C90.2269 7.67293 84.5015 1.94751 77.4388 1.94751H49.9501Z" fill="white"/>
<path fill-rule="evenodd" clip-rule="evenodd" d="M65.8129 60.4271H49.9502C42.8875 60.4271 37.1621 54.7017 37.1621 47.639V14.7356C37.1621 7.6729 42.8875 1.94748 49.9502 1.94748H77.4388C84.5015 1.94748 90.2269 7.6729 90.2269 14.7356V47.639C90.2269 54.5897 84.6815 60.2453 77.7735 60.4228V75.191L65.8129 60.4271ZM79.6004 62.0951C86.6474 61.0502 92.0538 54.9762 92.0538 47.639V14.7356C92.0538 6.66395 85.5104 0.120605 77.4388 0.120605H49.9502C41.8785 0.120605 35.3352 6.66395 35.3352 14.7356V47.639C35.3352 55.7106 41.8785 62.254 49.9502 62.254H64.9417L76.354 76.341C76.8411 76.9422 77.6541 77.1714 78.3835 76.913C79.1129 76.6547 79.6004 75.9648 79.6004 75.191V62.0951Z" fill="#FFC93E"/>
<path fill-rule="evenodd" clip-rule="evenodd" d="M38.3154 15.3325C38.3154 8.77434 43.6318 3.45789 50.19 3.45789H77.0649C83.623 3.45789 88.9395 8.77435 88.9395 15.3325V46.7732C88.9395 53.3314 83.623 58.6478 77.0648 58.6478H76.7427C76.2382 58.6478 75.8293 58.2389 75.8293 57.7344C75.8293 57.2299 76.2382 56.821 76.7427 56.821H77.0648C82.6141 56.821 87.1126 52.3224 87.1126 46.7732V15.3325C87.1126 9.7833 82.6141 5.28476 77.0649 5.28476H50.19C44.6408 5.28476 40.1422 9.78329 40.1422 15.3325V46.7732C40.1422 52.3224 44.6408 56.821 50.19 56.821H66.5511C67.0555 56.821 67.4645 57.2299 67.4645 57.7344C67.4645 58.2389 67.0555 58.6478 66.5511 58.6478H50.19C43.6318 58.6478 38.3154 53.3314 38.3154 46.7732V15.3325Z" fill="#FFC93E"/>
<path fill-rule="evenodd" clip-rule="evenodd" d="M46.7968 33.8616C46.7968 32.8527 47.6147 32.0348 48.6237 32.0348H78.778C79.7869 32.0348 80.6048 32.8527 80.6048 33.8616C80.6048 34.8706 79.7869 35.6885 78.778 35.6885H48.6237C47.6147 35.6885 46.7968 34.8706 46.7968 33.8616Z" fill="#FFC93E"/>
<path fill-rule="evenodd" clip-rule="evenodd" d="M46.7968 24.3689C46.7968 23.3599 47.6147 22.542 48.6237 22.542H78.778C79.7869 22.542 80.6048 23.3599 80.6048 24.3689C80.6048 25.3778 79.7869 26.1957 78.778 26.1957H48.6237C47.6147 26.1957 46.7968 25.3778 46.7968 24.3689Z" fill="#FFC93E"/>
<path fill-rule="evenodd" clip-rule="evenodd" d="M46.7966 15.2356C46.7966 14.2266 47.6145 13.4087 48.6235 13.4087H78.7778C79.7868 13.4087 80.6047 14.2266 80.6047 15.2356C80.6047 16.2445 79.7868 17.0624 78.7778 17.0624H48.6235C47.6145 17.0624 46.7966 16.2445 46.7966 15.2356Z" fill="#FFC93E"/>
<path fill-rule="evenodd" clip-rule="evenodd" d="M46.7968 42.76C46.7968 41.751 47.6147 40.9331 48.6237 40.9331H64.9932C66.0021 40.9331 66.82 41.751 66.82 42.76C66.82 43.7689 66.0021 44.5869 64.9932 44.5869H48.6237C47.6147 44.5869 46.7968 43.7689 46.7968 42.76Z" fill="#FFC93E"/>
</svg>
