<svg width="128" height="128" viewBox="0 0 128 128" fill="none" xmlns="http://www.w3.org/2000/svg">
<rect width="128" height="128" fill="white"/>
<rect width="128" height="128" fill="#EBE6E3"/>
<path d="M43.1147 82.3393C44.6256 78.9461 48.783 77.6654 51.9415 79.6202C54.8905 81.4453 55.7396 85.3513 53.8146 88.2361L41.2254 107.102C39.9954 108.945 37.5459 109.517 35.6269 108.409C33.7635 107.333 33.0133 105.024 33.8885 103.058L43.1147 82.3393Z" fill="#FFC93E"/>
<path d="M85.8357 82.3393C84.3247 78.9461 80.1674 77.6654 77.0089 79.6202C74.0599 81.4453 73.2107 85.3513 75.1358 88.2361L87.725 107.102C88.9549 108.945 91.4045 109.517 93.3235 108.409C95.1869 107.333 95.9371 105.024 95.0619 103.058L85.8357 82.3393Z" fill="#FFC93E"/>
<path d="M59.0642 29.9303C59.0642 27.1538 61.315 24.903 64.0916 24.903V24.903C66.8681 24.903 69.1189 27.1538 69.1189 29.9303V30.8938C69.1189 33.6703 66.8681 35.9211 64.0916 35.9211V35.9211C61.315 35.9211 59.0642 33.6703 59.0642 30.8938V29.9303Z" fill="white"/>
<path fill-rule="evenodd" clip-rule="evenodd" d="M71.1189 29.9303V30.8938C71.1189 34.7749 67.9727 37.9211 64.0916 37.9211C60.2105 37.9211 57.0642 34.7749 57.0642 30.8938V29.9303C57.0642 26.0492 60.2105 22.903 64.0916 22.903C67.9727 22.903 71.1189 26.0492 71.1189 29.9303ZM64.0916 24.903C61.315 24.903 59.0642 27.1538 59.0642 29.9303V30.8938C59.0642 33.6703 61.315 35.9211 64.0916 35.9211C66.8681 35.9211 69.1189 33.6703 69.1189 30.8938V29.9303C69.1189 27.1538 66.8681 24.903 64.0916 24.903Z" fill="#FFC93E"/>
<path d="M23.7992 28.9848C17.898 34.886 17.0689 43.9384 21.3117 50.7251C22.4828 52.5983 25.0655 52.5819 26.6276 51.0198L45.8341 31.8133C47.3962 30.2512 47.4127 27.6685 45.5394 26.4974C38.7528 22.2546 29.7003 23.0837 23.7992 28.9848Z" fill="#FFC93E"/>
<path d="M104.201 28.9851C110.102 34.8862 110.931 43.9387 106.688 50.7254C105.517 52.5986 102.934 52.5821 101.372 51.02L82.1658 31.8135C80.6038 30.2514 80.5873 27.6687 82.4605 26.4976C89.2472 22.2548 98.2996 23.0839 104.201 28.9851Z" fill="#FFC93E"/>
<path d="M101.919 67.5155C101.919 88.6738 84.7672 105.826 63.6088 105.826C42.4505 105.826 25.2982 88.6738 25.2982 67.5155C25.2982 46.3571 42.4505 29.2048 63.6088 29.2048C84.7672 29.2048 101.919 46.3571 101.919 67.5155Z" fill="white"/>
<path fill-rule="evenodd" clip-rule="evenodd" d="M103.919 67.5155C103.919 89.7784 85.8718 107.826 63.6088 107.826C41.3459 107.826 23.2982 89.7784 23.2982 67.5155C23.2982 45.2525 41.3459 27.2048 63.6088 27.2048C85.8718 27.2048 103.919 45.2525 103.919 67.5155ZM63.6088 105.826C84.7672 105.826 101.919 88.6738 101.919 67.5155C101.919 46.3571 84.7672 29.2048 63.6088 29.2048C42.4505 29.2048 25.2982 46.3571 25.2982 67.5155C25.2982 88.6738 42.4505 105.826 63.6088 105.826Z" fill="#FFC93E"/>
<path fill-rule="evenodd" clip-rule="evenodd" d="M63.8143 32.7513C44.7277 32.7513 29.2551 48.224 29.2551 67.3105C29.2551 86.397 44.7277 101.87 63.8143 101.87C82.9008 101.87 98.3735 86.397 98.3735 67.3105C98.3735 48.224 82.9008 32.7513 63.8143 32.7513ZM27.2551 67.3105C27.2551 47.1194 43.6232 30.7513 63.8143 30.7513C84.0053 30.7513 100.373 47.1194 100.373 67.3105C100.373 87.5016 84.0053 103.87 63.8143 103.87C43.6232 103.87 27.2551 87.5016 27.2551 67.3105Z" fill="#FFC93E"/>
<path d="M65.4655 46.3176C65.4655 45.2923 64.6343 44.4612 63.6091 44.4612C62.5838 44.4612 61.7527 45.2923 61.7527 46.3176V65.7082C61.7527 66.7334 62.5838 67.5645 63.6091 67.5645C64.6343 67.5645 65.4655 66.7334 65.4655 65.7082V46.3176Z" fill="#FFC93E"/>
<path d="M64.9188 70.037C65.8347 68.9982 65.735 67.4135 64.6962 66.4977C63.6573 65.5818 62.0727 65.6815 61.1569 66.7203L51.8345 77.2943C50.9186 78.3331 51.0183 79.9177 52.0571 80.8336C53.096 81.7495 54.6806 81.6498 55.5965 80.611L64.9188 70.037Z" fill="#FFC93E"/>
<path d="M67.3191 67.5155C67.3191 69.5647 65.6579 71.2259 63.6087 71.2259C61.5595 71.2259 59.8983 69.5647 59.8983 67.5155C59.8983 65.4663 61.5595 63.8051 63.6087 63.8051C65.6579 63.8051 67.3191 65.4663 67.3191 67.5155Z" fill="white"/>
<path fill-rule="evenodd" clip-rule="evenodd" d="M69.3191 67.5155C69.3191 70.6692 66.7624 73.2259 63.6087 73.2259C60.4549 73.2259 57.8983 70.6692 57.8983 67.5155C57.8983 64.3617 60.4549 61.8051 63.6087 61.8051C66.7624 61.8051 69.3191 64.3617 69.3191 67.5155ZM63.6087 71.2259C65.6579 71.2259 67.3191 69.5647 67.3191 67.5155C67.3191 65.4663 65.6579 63.8051 63.6087 63.8051C61.5595 63.8051 59.8983 65.4663 59.8983 67.5155C59.8983 69.5647 61.5595 71.2259 63.6087 71.2259Z" fill="#FFC93E"/>
<path d="M80.5606 91.9632C81.0864 92.8739 80.7744 94.0385 79.8636 94.5643C78.9529 95.0901 77.7883 94.7781 77.2625 93.8673C76.7367 92.9566 77.0487 91.792 77.9595 91.2662C78.8702 90.7404 80.0348 91.0524 80.5606 91.9632Z" fill="#FFC93E"/>
<path d="M50.7404 40.3142C51.2662 41.2249 50.9541 42.3895 50.0434 42.9153C49.1326 43.4411 47.9681 43.1291 47.4422 42.2183C46.9164 41.3076 47.2285 40.143 48.1392 39.6172C49.05 39.0914 50.2145 39.4034 50.7404 40.3142Z" fill="#FFC93E"/>
<path d="M39.1279 83.6495C38.2172 84.1754 37.0526 83.8633 36.5268 82.9526C36.001 82.0418 36.313 80.8772 37.2238 80.3514C38.1345 79.8256 39.2991 80.1376 39.8249 81.0484C40.3507 81.9592 40.0387 83.1237 39.1279 83.6495Z" fill="#FFC93E"/>
<path d="M90.7777 53.8297C89.867 54.3555 88.7024 54.0435 88.1766 53.1327C87.6507 52.222 87.9628 51.0574 88.8735 50.5316C89.7843 50.0058 90.9489 50.3178 91.4747 51.2286C92.0005 52.1393 91.6885 53.3039 90.7777 53.8297Z" fill="#FFC93E"/>
<path d="M90.778 80.3512C91.6887 80.877 92.0008 82.0416 91.475 82.9523C90.9491 83.8631 89.7846 84.1751 88.8738 83.6493C87.9631 83.1235 87.651 81.9589 88.1768 81.0481C88.7027 80.1374 89.8672 79.8253 90.778 80.3512Z" fill="#FFC93E"/>
<path d="M39.129 50.5318C40.0398 51.0576 40.3518 52.2222 39.826 53.133C39.3002 54.0437 38.1356 54.3558 37.2249 53.8299C36.3141 53.3041 36.0021 52.1396 36.5279 51.2288C37.0537 50.318 38.2183 50.006 39.129 50.5318Z" fill="#FFC93E"/>
<path d="M50.7399 93.8674C50.2141 94.7782 49.0495 95.0902 48.1387 94.5644C47.228 94.0386 46.9159 92.874 47.4418 91.9632C47.9676 91.0525 49.1322 90.7404 50.0429 91.2663C50.9537 91.7921 51.2657 92.9567 50.7399 93.8674Z" fill="#FFC93E"/>
<path d="M80.5593 42.2184C80.0335 43.1292 78.8689 43.4412 77.9582 42.9154C77.0474 42.3896 76.7354 41.225 77.2612 40.3142C77.787 39.4035 78.9516 39.0914 79.8623 39.6173C80.7731 40.1431 81.0851 41.3077 80.5593 42.2184Z" fill="#FFC93E"/>
<path d="M93.3197 64.8392C94.8249 64.8392 96.045 66.0593 96.045 67.5645C96.045 69.0696 94.8249 70.2898 93.3197 70.2898C91.8146 70.2898 90.5944 69.0696 90.5944 67.5645C90.5944 66.0593 91.8146 64.8392 93.3197 64.8392Z" fill="#FFC93E"/>
<path d="M34.7401 64.6283C36.1003 64.6283 37.203 65.731 37.203 67.0913C37.203 68.4515 36.1003 69.5542 34.7401 69.5542C33.3798 69.5542 32.2771 68.4515 32.2771 67.0913C32.2771 65.731 33.3798 64.6283 34.7401 64.6283Z" fill="#FFC93E"/>
<path d="M66.5772 96.3451C66.5772 97.7679 65.4238 98.9213 64.0011 98.9213C62.5783 98.9213 61.4249 97.7679 61.4249 96.3451C61.4249 94.9224 62.5783 93.769 64.0011 93.769C65.4238 93.769 66.5772 94.9224 66.5772 96.3451Z" fill="#FFC93E"/>
<path d="M66.1178 37.6056C66.1178 39.0191 64.9719 40.165 63.5583 40.165C62.1448 40.165 60.9989 39.0191 60.9989 37.6056C60.9989 36.192 62.1448 35.0461 63.5583 35.0461C64.9719 35.0461 66.1178 36.192 66.1178 37.6056Z" fill="#FFC93E"/>
</svg>
