<svg width="106" height="96" viewBox="0 0 106 96" fill="none" xmlns="http://www.w3.org/2000/svg">
<path d="M32.1147 66.3393C33.6257 62.9461 37.7831 61.6654 40.9415 63.6202C43.8905 65.4453 44.7397 69.3513 42.8147 72.2361L30.2255 91.1017C28.9955 92.9449 26.546 93.5168 24.6269 92.4089C22.7635 91.3331 22.0133 89.0239 22.8886 87.0583L32.1147 66.3393Z" fill="#FFC93E"/>
<path d="M74.8357 66.3393C73.3247 62.9461 69.1674 61.6654 66.0089 63.6202C63.0599 65.4453 62.2107 69.3513 64.1358 72.2361L76.725 91.1017C77.9549 92.9449 80.4045 93.5168 82.3235 92.4089C84.1869 91.3331 84.9371 89.0239 84.0619 87.0583L74.8357 66.3393Z" fill="#FFC93E"/>
<path d="M48.0643 13.9303C48.0643 11.1538 50.3151 8.90295 53.0916 8.90295C55.8682 8.90295 58.119 11.1538 58.119 13.9303V14.8938C58.119 17.6703 55.8682 19.9211 53.0916 19.9211C50.3151 19.9211 48.0643 17.6703 48.0643 14.8938V13.9303Z" fill="white"/>
<path fill-rule="evenodd" clip-rule="evenodd" d="M60.119 13.9303V14.8938C60.119 18.7749 56.9727 21.9211 53.0916 21.9211C49.2105 21.9211 46.0643 18.7749 46.0643 14.8938V13.9303C46.0643 10.0492 49.2105 6.90295 53.0916 6.90295C56.9727 6.90295 60.119 10.0492 60.119 13.9303ZM53.0916 8.90295C50.3151 8.90295 48.0643 11.1538 48.0643 13.9303V14.8938C48.0643 17.6703 50.3151 19.9211 53.0916 19.9211C55.8682 19.9211 58.119 17.6703 58.119 14.8938V13.9303C58.119 11.1538 55.8682 8.90295 53.0916 8.90295Z" fill="#FFC93E"/>
<path d="M12.7992 12.9848C6.89806 18.886 6.06891 27.9384 10.3117 34.7251C11.4828 36.5983 14.0655 36.5819 15.6276 35.0198L34.8341 15.8133C36.3962 14.2512 36.4127 11.6685 34.5395 10.4974C27.7528 6.25456 18.7003 7.0837 12.7992 12.9848Z" fill="#FFC93E"/>
<path d="M93.2008 12.9851C99.102 18.8862 99.9311 27.9387 95.6883 34.7254C94.5172 36.5986 91.9345 36.5821 90.3724 35.02L71.1659 15.8135C69.6038 14.2514 69.5874 11.6687 71.4606 10.4976C78.2472 6.2548 87.2997 7.08395 93.2008 12.9851Z" fill="#FFC93E"/>
<path d="M90.9195 51.5155C90.9195 72.6738 73.7672 89.8261 52.6088 89.8261C31.4505 89.8261 14.2982 72.6738 14.2982 51.5155C14.2982 30.3571 31.4505 13.2048 52.6088 13.2048C73.7672 13.2048 90.9195 30.3571 90.9195 51.5155Z" fill="white"/>
<path fill-rule="evenodd" clip-rule="evenodd" d="M92.9195 51.5155C92.9195 73.7784 74.8718 91.8261 52.6088 91.8261C30.3459 91.8261 12.2982 73.7784 12.2982 51.5155C12.2982 29.2525 30.3459 11.2048 52.6088 11.2048C74.8718 11.2048 92.9195 29.2525 92.9195 51.5155ZM52.6088 89.8261C73.7672 89.8261 90.9195 72.6738 90.9195 51.5155C90.9195 30.3571 73.7672 13.2048 52.6088 13.2048C31.4505 13.2048 14.2982 30.3571 14.2982 51.5155C14.2982 72.6738 31.4505 89.8261 52.6088 89.8261Z" fill="#FFC93E"/>
<path fill-rule="evenodd" clip-rule="evenodd" d="M52.8143 16.7513C33.7278 16.7513 18.2551 32.224 18.2551 51.3105C18.2551 70.397 33.7278 85.8697 52.8143 85.8697C71.9008 85.8697 87.3735 70.397 87.3735 51.3105C87.3735 32.224 71.9008 16.7513 52.8143 16.7513ZM16.2551 51.3105C16.2551 31.1194 32.6232 14.7513 52.8143 14.7513C73.0054 14.7513 89.3735 31.1194 89.3735 51.3105C89.3735 71.5016 73.0054 87.8697 52.8143 87.8697C32.6232 87.8697 16.2551 71.5016 16.2551 51.3105Z" fill="#FFC93E"/>
<path d="M54.4655 30.3176C54.4655 29.2923 53.6344 28.4612 52.6091 28.4612C51.5839 28.4612 50.7527 29.2923 50.7527 30.3176V49.7082C50.7527 50.7334 51.5839 51.5645 52.6091 51.5645C53.6344 51.5645 54.4655 50.7334 54.4655 49.7082V30.3176Z" fill="#FFC93E"/>
<path d="M53.9189 54.037C54.8347 52.9982 54.7351 51.4135 53.6962 50.4977C52.6574 49.5818 51.0728 49.6815 50.1569 50.7203L40.8346 61.2943C39.9187 62.3331 40.0184 63.9177 41.0572 64.8336C42.096 65.7495 43.6807 65.6498 44.5965 64.611L53.9189 54.037Z" fill="#FFC93E"/>
<path d="M56.3191 51.5155C56.3191 53.5647 54.6579 55.2259 52.6087 55.2259C50.5595 55.2259 48.8983 53.5647 48.8983 51.5155C48.8983 49.4663 50.5595 47.8051 52.6087 47.8051C54.6579 47.8051 56.3191 49.4663 56.3191 51.5155Z" fill="white"/>
<path fill-rule="evenodd" clip-rule="evenodd" d="M58.3191 51.5155C58.3191 54.6692 55.7625 57.2259 52.6087 57.2259C49.455 57.2259 46.8983 54.6692 46.8983 51.5155C46.8983 48.3617 49.455 45.8051 52.6087 45.8051C55.7625 45.8051 58.3191 48.3617 58.3191 51.5155ZM52.6087 55.2259C54.6579 55.2259 56.3191 53.5647 56.3191 51.5155C56.3191 49.4663 54.6579 47.8051 52.6087 47.8051C50.5595 47.8051 48.8983 49.4663 48.8983 51.5155C48.8983 53.5647 50.5595 55.2259 52.6087 55.2259Z" fill="#FFC93E"/>
<path d="M69.5607 75.9632C70.0865 76.8739 69.7744 78.0385 68.8637 78.5643C67.9529 79.0901 66.7884 78.7781 66.2625 77.8673C65.7367 76.9566 66.0488 75.792 66.9595 75.2662C67.8703 74.7404 69.0348 75.0524 69.5607 75.9632Z" fill="#FFC93E"/>
<path d="M39.7404 24.3142C40.2662 25.2249 39.9542 26.3895 39.0434 26.9153C38.1327 27.4411 36.9681 27.1291 36.4423 26.2183C35.9165 25.3076 36.2285 24.143 37.1393 23.6172C38.05 23.0914 39.2146 23.4034 39.7404 24.3142Z" fill="#FFC93E"/>
<path d="M28.128 67.6495C27.2172 68.1754 26.0527 67.8633 25.5268 66.9526C25.001 66.0418 25.3131 64.8772 26.2238 64.3514C27.1346 63.8256 28.2991 64.1376 28.825 65.0484C29.3508 65.9592 29.0387 67.1237 28.128 67.6495Z" fill="#FFC93E"/>
<path d="M79.7778 37.8297C78.867 38.3555 77.7024 38.0435 77.1766 37.1327C76.6508 36.222 76.9628 35.0574 77.8736 34.5316C78.7844 34.0058 79.9489 34.3178 80.4747 35.2286C81.0006 36.1393 80.6885 37.3039 79.7778 37.8297Z" fill="#FFC93E"/>
<path d="M79.778 64.3512C80.6888 64.877 81.0008 66.0416 80.475 66.9523C79.9492 67.8631 78.7846 68.1751 77.8739 67.6493C76.9631 67.1235 76.6511 65.9589 77.1769 65.0481C77.7027 64.1374 78.8673 63.8253 79.778 64.3512Z" fill="#FFC93E"/>
<path d="M28.1291 34.5318C29.0398 35.0576 29.3519 36.2222 28.8261 37.133C28.3002 38.0437 27.1357 38.3558 26.2249 37.8299C25.3142 37.3041 25.0021 36.1396 25.5279 35.2288C26.0538 34.318 27.2183 34.006 28.1291 34.5318Z" fill="#FFC93E"/>
<path d="M39.74 77.8674C39.2141 78.7782 38.0496 79.0902 37.1388 78.5644C36.2281 78.0386 35.916 76.874 36.4418 75.9632C36.9676 75.0525 38.1322 74.7404 39.043 75.2663C39.9537 75.7921 40.2658 76.9567 39.74 77.8674Z" fill="#FFC93E"/>
<path d="M69.5594 26.2184C69.0335 27.1292 67.869 27.4412 66.9582 26.9154C66.0475 26.3896 65.7354 25.225 66.2612 24.3142C66.7871 23.4035 67.9516 23.0914 68.8624 23.6173C69.7731 24.1431 70.0852 25.3077 69.5594 26.2184Z" fill="#FFC93E"/>
<path d="M82.3198 48.8392C83.8249 48.8392 85.0451 50.0593 85.0451 51.5645C85.0451 53.0696 83.8249 54.2898 82.3198 54.2898C80.8147 54.2898 79.5945 53.0696 79.5945 51.5645C79.5945 50.0593 80.8147 48.8392 82.3198 48.8392Z" fill="#FFC93E"/>
<path d="M23.7401 48.6283C25.1004 48.6283 26.2031 49.731 26.2031 51.0913C26.2031 52.4515 25.1004 53.5542 23.7401 53.5542C22.3799 53.5542 21.2772 52.4515 21.2772 51.0913C21.2772 49.731 22.3799 48.6283 23.7401 48.6283Z" fill="#FFC93E"/>
<path d="M55.5773 80.3451C55.5773 81.7679 54.4239 82.9213 53.0011 82.9213C51.5784 82.9213 50.425 81.7679 50.425 80.3451C50.425 78.9224 51.5784 77.769 53.0011 77.769C54.4239 77.769 55.5773 78.9224 55.5773 80.3451Z" fill="#FFC93E"/>
<path d="M55.1178 21.6056C55.1178 23.0191 53.9719 24.165 52.5584 24.165C51.1449 24.165 49.999 23.0191 49.999 21.6056C49.999 20.192 51.1449 19.0461 52.5584 19.0461C53.9719 19.0461 55.1178 20.192 55.1178 21.6056Z" fill="#FFC93E"/>
</svg>
