<svg width="44" height="44" viewBox="0 0 44 44" fill="none" xmlns="http://www.w3.org/2000/svg">
<path d="M37.125 0H6.875C3.07804 0 0 3.07804 0 6.875V37.125C0 40.922 3.07804 44 6.875 44H37.125C40.922 44 44 40.922 44 37.125V6.875C44 3.07804 40.922 0 37.125 0Z" fill="#F12E80"/>
<path d="M22 12.65C25.025 12.65 25.4375 12.65 26.675 12.65C27.775 12.65 28.325 12.925 28.7375 13.0625C29.2875 13.3375 29.7 13.475 30.1125 13.8875C30.525 14.3 30.8 14.7125 30.9375 15.2625C31.075 15.675 31.2125 16.225 31.35 17.325C31.35 18.5625 31.35 18.8375 31.35 22C31.35 25.1625 31.35 25.4375 31.35 26.675C31.35 27.775 31.075 28.325 30.9375 28.7375C30.6625 29.2875 30.525 29.7 30.1125 30.1125C29.7 30.525 29.2875 30.8 28.7375 30.9375C28.325 31.075 27.775 31.2125 26.675 31.35C25.4375 31.35 25.1625 31.35 22 31.35C18.8375 31.35 18.5625 31.35 17.325 31.35C16.225 31.35 15.675 31.075 15.2625 30.9375C14.7125 30.6625 14.3 30.525 13.8875 30.1125C13.475 29.7 13.2 29.2875 13.0625 28.7375C12.925 28.325 12.7875 27.775 12.65 26.675C12.65 25.4375 12.65 25.1625 12.65 22C12.65 18.8375 12.65 18.5625 12.65 17.325C12.65 16.225 12.925 15.675 13.0625 15.2625C13.3375 14.7125 13.475 14.3 13.8875 13.8875C14.3 13.475 14.7125 13.2 15.2625 13.0625C15.675 12.925 16.225 12.7875 17.325 12.65C18.5625 12.65 18.975 12.65 22 12.65ZM22 10.5875C18.8375 10.5875 18.5625 10.5875 17.325 10.5875C16.0875 10.5875 15.2625 10.8625 14.575 11.1375C13.8875 11.4125 13.2 11.825 12.5125 12.5125C11.825 13.2 11.55 13.75 11.1375 14.575C10.8625 15.2625 10.725 16.0875 10.5875 17.325C10.5875 18.5625 10.5875 18.975 10.5875 22C10.5875 25.1625 10.5875 25.4375 10.5875 26.675C10.5875 27.9125 10.8625 28.7375 11.1375 29.425C11.4125 30.1125 11.825 30.8 12.5125 31.4875C13.2 32.175 13.75 32.45 14.575 32.8625C15.2625 33.1375 16.0875 33.275 17.325 33.4125C18.5625 33.4125 18.975 33.4125 22 33.4125C25.025 33.4125 25.4375 33.4125 26.675 33.4125C27.9125 33.4125 28.7375 33.1375 29.425 32.8625C30.1125 32.5875 30.8 32.175 31.4875 31.4875C32.175 30.8 32.45 30.25 32.8625 29.425C33.1375 28.7375 33.275 27.9125 33.4125 26.675C33.4125 25.4375 33.4125 25.025 33.4125 22C33.4125 18.975 33.4125 18.5625 33.4125 17.325C33.4125 16.0875 33.1375 15.2625 32.8625 14.575C32.5875 13.8875 32.175 13.2 31.4875 12.5125C30.8 11.825 30.25 11.55 29.425 11.1375C28.7375 10.8625 27.9125 10.725 26.675 10.5875C25.4375 10.5875 25.1625 10.5875 22 10.5875Z" fill="white"/>
<path d="M22 16.0875C18.7 16.0875 16.0875 18.7 16.0875 22C16.0875 25.3 18.7 27.9125 22 27.9125C25.3 27.9125 27.9125 25.3 27.9125 22C27.9125 18.7 25.3 16.0875 22 16.0875ZM22 25.85C19.9375 25.85 18.15 24.2 18.15 22C18.15 19.9375 19.8 18.15 22 18.15C24.0625 18.15 25.85 19.8 25.85 22C25.85 24.0625 24.0625 25.85 22 25.85Z" fill="white"/>
<path d="M28.05 17.325C28.8094 17.325 29.425 16.7094 29.425 15.95C29.425 15.1906 28.8094 14.575 28.05 14.575C27.2906 14.575 26.675 15.1906 26.675 15.95C26.675 16.7094 27.2906 17.325 28.05 17.325Z" fill="white"/>
</svg>
