<svg width="44" height="44" viewBox="0 0 44 44" fill="none" xmlns="http://www.w3.org/2000/svg">
<path d="M37.125 0H6.875C3.07804 0 0 3.07804 0 6.875V37.125C0 40.922 3.07804 44 6.875 44H37.125C40.922 44 44 40.922 44 37.125V6.875C44 3.07804 40.922 0 37.125 0Z" fill="#0088CC"/>
<path d="M11.1374 21.5989C17.043 19.0259 20.9809 17.3297 22.9513 16.5101C28.5771 14.1702 29.7461 13.7637 30.508 13.7501C30.6756 13.7473 31.0503 13.7889 31.293 13.9858C31.498 14.1521 31.5544 14.3767 31.5813 14.5344C31.6083 14.6921 31.6419 15.0512 31.6152 15.3319C31.3104 18.5351 29.9912 26.3085 29.3201 29.8962C29.0361 31.4143 28.477 31.9233 27.9357 31.9731C26.7593 32.0814 25.8659 31.1957 24.7265 30.4488C22.9436 29.28 21.9363 28.5525 20.2057 27.412C18.2056 26.094 19.5022 25.3696 20.642 24.1857C20.9403 23.8759 26.1236 19.1613 26.2239 18.7336C26.2365 18.6801 26.2481 18.4807 26.1296 18.3754C26.0112 18.2701 25.8364 18.3061 25.7102 18.3348C25.5314 18.3754 22.6831 20.258 17.1653 23.9826C16.3569 24.5378 15.6246 24.8083 14.9685 24.7941C14.2452 24.7785 12.8538 24.3851 11.8195 24.0489C10.5508 23.6365 9.54253 23.4185 9.63033 22.7181C9.67606 22.3533 10.1784 21.9803 11.1374 21.5989Z" fill="white"/>
</svg>
