<svg width="44" height="44" viewBox="0 0 44 44" fill="none" xmlns="http://www.w3.org/2000/svg">
<path d="M37.125 0H6.875C3.07804 0 0 3.07804 0 6.875V37.125C0 40.922 3.07804 44 6.875 44H37.125C40.922 44 44 40.922 44 37.125V6.875C44 3.07804 40.922 0 37.125 0Z" fill="#EE6666"/>
<path d="M32.45 16.6376C32.175 15.6751 31.4875 14.9875 30.525 14.7125C28.875 14.3 21.8625 14.3 21.8625 14.3C21.8625 14.3 14.9875 14.3 13.2 14.7125C12.2375 14.9875 11.55 15.6751 11.275 16.6376C11 18.4251 11 22.0001 11 22.0001C11 22.0001 11 25.5751 11.4125 27.3625C11.6875 28.3251 12.375 29.0126 13.3375 29.2875C14.9875 29.7001 22 29.7001 22 29.7001C22 29.7001 28.875 29.7001 30.6625 29.2875C31.625 29.0126 32.3125 28.3251 32.5875 27.3625C33 25.5751 33 22.0001 33 22.0001C33 22.0001 33 18.4251 32.45 16.6376ZM19.8 25.3V18.7001L25.575 22.0001L19.8 25.3Z" fill="white"/>
</svg>
