<svg width="128" height="128" viewBox="0 0 128 128" fill="none" xmlns="http://www.w3.org/2000/svg">
<g clip-path="url(#clip0_1718_479)">
<rect x="27.2941" y="93.8762" width="6.65999" height="14.5824" rx="3.33" fill="#FFC93E"/>
<rect x="93.3682" y="93.8762" width="6.66" height="14.5824" rx="3.33" fill="#FFC93E"/>
<rect x="12.1299" y="26.9043" width="103.74" height="75.9391" rx="9" fill="white" stroke="#FFC93E" stroke-width="2" stroke-linecap="round" stroke-linejoin="round"/>
<rect x="15.9027" y="31.2058" width="95.9507" height="67.9954" rx="6" stroke="#FFC93E" stroke-width="2" stroke-linecap="round" stroke-linejoin="round"/>
<path d="M26.4934 70.256C25.5868 70.256 24.7494 70.1173 23.9814 69.84C23.2241 69.552 22.5628 69.1467 21.9974 68.624C21.4428 68.1013 21.0108 67.4827 20.7014 66.768C20.3921 66.0533 20.2374 65.264 20.2374 64.4C20.2374 63.536 20.3921 62.7467 20.7014 62.032C21.0108 61.3173 21.4481 60.6987 22.0134 60.176C22.5788 59.6533 23.2454 59.2533 24.0134 58.976C24.7921 58.688 25.6454 58.544 26.5734 58.544C27.6828 58.544 28.6694 58.7307 29.5334 59.104C30.4081 59.4773 31.1281 60.0107 31.6934 60.704L29.2774 62.832C28.9254 62.4267 28.5414 62.1227 28.1254 61.92C27.7201 61.7067 27.2668 61.6 26.7654 61.6C26.3494 61.6 25.9708 61.664 25.6294 61.792C25.2988 61.92 25.0161 62.1067 24.7814 62.352C24.5468 62.5973 24.3654 62.8907 24.2374 63.232C24.1094 63.5733 24.0454 63.9627 24.0454 64.4C24.0454 64.816 24.1094 65.2 24.2374 65.552C24.3654 65.8933 24.5468 66.1867 24.7814 66.432C25.0161 66.6773 25.2934 66.8693 25.6134 67.008C25.9441 67.136 26.3121 67.2 26.7174 67.2C27.1441 67.2 27.5601 67.1307 27.9654 66.992C28.3708 66.8427 28.8028 66.592 29.2614 66.24L31.3734 68.832C30.6908 69.2907 29.9121 69.6427 29.0374 69.888C28.1628 70.1333 27.3148 70.256 26.4934 70.256ZM28.0934 68.352V64.096H31.3734V68.832L28.0934 68.352ZM37.7023 70.16C36.6356 70.16 35.7023 69.9627 34.9023 69.568C34.113 69.1733 33.4996 68.6347 33.0623 67.952C32.625 67.2587 32.4063 66.48 32.4063 65.616C32.4063 64.7307 32.6196 63.9467 33.0463 63.264C33.4836 62.5813 34.0756 62.048 34.8223 61.664C35.5796 61.28 36.4276 61.088 37.3663 61.088C38.2303 61.088 39.025 61.2587 39.7503 61.6C40.4863 61.9413 41.073 62.448 41.5103 63.12C41.9583 63.792 42.1823 64.624 42.1823 65.616C42.1823 65.744 42.177 65.888 42.1663 66.048C42.1556 66.1973 42.145 66.336 42.1343 66.464H35.3983V64.72H40.2143L38.8543 65.184C38.8543 64.8427 38.7903 64.5547 38.6623 64.32C38.545 64.0747 38.3796 63.888 38.1663 63.76C37.953 63.6213 37.697 63.552 37.3983 63.552C37.0996 63.552 36.8383 63.6213 36.6143 63.76C36.401 63.888 36.2356 64.0747 36.1183 64.32C36.001 64.5547 35.9423 64.8427 35.9423 65.184V65.728C35.9423 66.1013 36.017 66.4213 36.1663 66.688C36.3156 66.9547 36.529 67.1573 36.8063 67.296C37.0836 67.424 37.4196 67.488 37.8143 67.488C38.2196 67.488 38.5503 67.4347 38.8063 67.328C39.073 67.2213 39.3503 67.0613 39.6383 66.848L41.5263 68.752C41.0996 69.2107 40.5716 69.5627 39.9423 69.808C39.3236 70.0427 38.577 70.16 37.7023 70.16ZM47.5474 70.16C46.3421 70.16 45.4034 69.872 44.7314 69.296C44.0594 68.7093 43.7234 67.8133 43.7234 66.608V59.28H47.3394V66.576C47.3394 66.8427 47.4088 67.0507 47.5474 67.2C47.6968 67.3493 47.8781 67.424 48.0914 67.424C48.4008 67.424 48.6728 67.344 48.9074 67.184L49.7714 69.696C49.4941 69.856 49.1581 69.9733 48.7634 70.048C48.3794 70.1227 47.9741 70.16 47.5474 70.16ZM42.5234 64.368V61.728H49.1314V64.368H42.5234ZM55.1524 70.16C54.1498 70.16 53.2591 69.968 52.4804 69.584C51.7018 69.2 51.0884 68.6667 50.6404 67.984C50.2031 67.2907 49.9844 66.5013 49.9844 65.616C49.9844 64.7307 50.2031 63.9467 50.6404 63.264C51.0884 62.5813 51.7018 62.048 52.4804 61.664C53.2591 61.28 54.1498 61.088 55.1524 61.088C56.2191 61.088 57.1311 61.3173 57.8884 61.776C58.6458 62.2347 59.1684 62.8693 59.4564 63.68L56.6564 65.056C56.4751 64.6507 56.2511 64.3573 55.9844 64.176C55.7284 63.9947 55.4458 63.904 55.1364 63.904C54.8698 63.904 54.6191 63.968 54.3844 64.096C54.1604 64.224 53.9791 64.416 53.8404 64.672C53.7124 64.9173 53.6484 65.232 53.6484 65.616C53.6484 66 53.7124 66.32 53.8404 66.576C53.9791 66.832 54.1604 67.024 54.3844 67.152C54.6191 67.28 54.8698 67.344 55.1364 67.344C55.4458 67.344 55.7284 67.2533 55.9844 67.072C56.2511 66.8907 56.4751 66.5973 56.6564 66.192L59.4564 67.568C59.1684 68.3787 58.6458 69.0133 57.8884 69.472C57.1311 69.9307 56.2191 70.16 55.1524 70.16ZM64.8381 70.16C63.8461 70.16 62.9661 69.968 62.1981 69.584C61.4407 69.1893 60.8434 68.6507 60.4061 67.968C59.9687 67.2853 59.7501 66.5013 59.7501 65.616C59.7501 64.7307 59.9687 63.9467 60.4061 63.264C60.8434 62.5813 61.4407 62.048 62.1981 61.664C62.9661 61.28 63.8461 61.088 64.8381 61.088C65.8301 61.088 66.7101 61.28 67.4781 61.664C68.2461 62.048 68.8434 62.5813 69.2701 63.264C69.7074 63.9467 69.9261 64.7307 69.9261 65.616C69.9261 66.5013 69.7074 67.2853 69.2701 67.968C68.8434 68.6507 68.2461 69.1893 67.4781 69.584C66.7101 69.968 65.8301 70.16 64.8381 70.16ZM64.8381 67.344C65.1047 67.344 65.3447 67.28 65.5581 67.152C65.7714 67.024 65.9421 66.832 66.0701 66.576C66.1981 66.3093 66.2621 65.9893 66.2621 65.616C66.2621 65.232 66.1981 64.9173 66.0701 64.672C65.9421 64.416 65.7714 64.224 65.5581 64.096C65.3447 63.968 65.1047 63.904 64.8381 63.904C64.5714 63.904 64.3314 63.968 64.1181 64.096C63.9047 64.224 63.7341 64.416 63.6061 64.672C63.4781 64.9173 63.4141 65.232 63.4141 65.616C63.4141 65.9893 63.4781 66.3093 63.6061 66.576C63.7341 66.832 63.9047 67.024 64.1181 67.152C64.3314 67.28 64.5714 67.344 64.8381 67.344ZM74.7058 70.16C74.0125 70.16 73.3831 70.0213 72.8178 69.744C72.2631 69.456 71.8258 69.0133 71.5058 68.416C71.1858 67.808 71.0258 67.0293 71.0258 66.08V61.248H74.6418V65.456C74.6418 66.0747 74.7431 66.5067 74.9458 66.752C75.1485 66.9973 75.4258 67.12 75.7778 67.12C75.9911 67.12 76.1885 67.0667 76.3698 66.96C76.5618 66.8427 76.7165 66.656 76.8338 66.4C76.9511 66.1333 77.0098 65.7867 77.0098 65.36V61.248H80.6258V70H77.1858V67.472L77.8738 68.16C77.5645 68.8427 77.1218 69.3493 76.5458 69.68C75.9805 70 75.3671 70.16 74.7058 70.16ZM82.2297 70V61.248H85.6697V63.888L85.1097 63.136C85.3764 62.4533 85.803 61.9413 86.3897 61.6C86.9764 61.2587 87.6804 61.088 88.5017 61.088V64.288C88.3417 64.2667 88.1977 64.2507 88.0697 64.24C87.9524 64.2293 87.8297 64.224 87.7017 64.224C87.1577 64.224 86.7097 64.368 86.3577 64.656C86.0164 64.9333 85.8457 65.4187 85.8457 66.112V70H82.2297ZM92.9506 70.16C92.2039 70.16 91.4679 70.08 90.7426 69.92C90.0172 69.76 89.4306 69.552 88.9826 69.296L89.9746 66.912C90.3906 67.1573 90.8706 67.3493 91.4146 67.488C91.9692 67.6267 92.5079 67.696 93.0306 67.696C93.4679 67.696 93.7612 67.6587 93.9106 67.584C94.0706 67.5093 94.1506 67.408 94.1506 67.28C94.1506 67.152 94.0599 67.0613 93.8786 67.008C93.6972 66.944 93.4572 66.896 93.1586 66.864C92.8599 66.832 92.5292 66.7947 92.1666 66.752C91.8146 66.6987 91.4572 66.624 91.0946 66.528C90.7319 66.432 90.4012 66.288 90.1026 66.096C89.8039 65.904 89.5639 65.648 89.3826 65.328C89.2012 64.9973 89.1106 64.5813 89.1106 64.08C89.1106 63.5253 89.2759 63.024 89.6066 62.576C89.9479 62.128 90.4492 61.7707 91.1106 61.504C91.7826 61.2267 92.6092 61.088 93.5906 61.088C94.2306 61.088 94.8706 61.1467 95.5106 61.264C96.1506 61.3813 96.6999 61.5627 97.1586 61.808L96.1666 64.192C95.7186 63.9467 95.2759 63.7813 94.8386 63.696C94.4119 63.6 94.0119 63.552 93.6386 63.552C93.1799 63.552 92.8652 63.5947 92.6946 63.68C92.5346 63.7653 92.4546 63.8613 92.4546 63.968C92.4546 64.096 92.5452 64.192 92.7266 64.256C92.9079 64.32 93.1479 64.368 93.4466 64.4C93.7452 64.432 94.0706 64.4747 94.4226 64.528C94.7852 64.5707 95.1426 64.6453 95.4946 64.752C95.8572 64.848 96.1879 64.992 96.4866 65.184C96.7852 65.376 97.0252 65.6373 97.2066 65.968C97.3879 66.288 97.4786 66.6987 97.4786 67.2C97.4786 67.7227 97.3132 68.2133 96.9826 68.672C96.6519 69.12 96.1506 69.4827 95.4786 69.76C94.8066 70.0267 93.9639 70.16 92.9506 70.16ZM103.405 70.16C102.339 70.16 101.405 69.9627 100.605 69.568C99.8161 69.1733 99.2028 68.6347 98.7654 67.952C98.3281 67.2587 98.1094 66.48 98.1094 65.616C98.1094 64.7307 98.3228 63.9467 98.7494 63.264C99.1868 62.5813 99.7788 62.048 100.525 61.664C101.283 61.28 102.131 61.088 103.069 61.088C103.933 61.088 104.728 61.2587 105.453 61.6C106.189 61.9413 106.776 62.448 107.213 63.12C107.661 63.792 107.885 64.624 107.885 65.616C107.885 65.744 107.88 65.888 107.869 66.048C107.859 66.1973 107.848 66.336 107.837 66.464H101.101V64.72H105.917L104.557 65.184C104.557 64.8427 104.493 64.5547 104.365 64.32C104.248 64.0747 104.083 63.888 103.869 63.76C103.656 63.6213 103.4 63.552 103.101 63.552C102.803 63.552 102.541 63.6213 102.317 63.76C102.104 63.888 101.939 64.0747 101.821 64.32C101.704 64.5547 101.645 64.8427 101.645 65.184V65.728C101.645 66.1013 101.72 66.4213 101.869 66.688C102.019 66.9547 102.232 67.1573 102.509 67.296C102.787 67.424 103.123 67.488 103.517 67.488C103.923 67.488 104.253 67.4347 104.509 67.328C104.776 67.2213 105.053 67.0613 105.341 66.848L107.229 68.752C106.803 69.2107 106.275 69.5627 105.645 69.808C105.027 70.0427 104.28 70.16 103.405 70.16Z" fill="#FFC93E"/>
</g>
<defs>
<clipPath id="clip0_1718_479">
<rect width="128" height="128" fill="white"/>
</clipPath>
</defs>
</svg>
