<svg width="44" height="44" viewBox="0 0 44 44" fill="none" xmlns="http://www.w3.org/2000/svg">
<path d="M37.1332 0.763153H7.49835C3.7786 0.763153 0.763153 3.7786 0.763153 7.49835V37.1332C0.763153 40.853 3.7786 43.8684 7.49835 43.8684H37.1332C40.853 43.8684 43.8684 40.853 43.8684 37.1332V7.49835C43.8684 3.7786 40.853 0.763153 37.1332 0.763153Z" fill="#FB9595"/>
<path d="M22.3158 13.1559C25.2793 13.1559 25.6834 13.1559 26.8957 13.1559C27.9733 13.1559 28.5122 13.4253 28.9163 13.56C29.4551 13.8294 29.8592 13.9641 30.2633 14.3682C30.6674 14.7724 30.9368 15.1765 31.0715 15.7153C31.2062 16.1194 31.3409 16.6582 31.4756 17.7358C31.4756 18.9482 31.4756 19.2176 31.4756 22.3158C31.4756 25.414 31.4756 25.6834 31.4756 26.8957C31.4756 27.9733 31.2062 28.5122 31.0715 28.9163C30.8021 29.4551 30.6674 29.8592 30.2633 30.2633C29.8592 30.6674 29.4551 30.9368 28.9163 31.0715C28.5122 31.2062 27.9733 31.3409 26.8957 31.4756C25.6834 31.4756 25.414 31.4756 22.3158 31.4756C19.2176 31.4756 18.9482 31.4756 17.7358 31.4756C16.6582 31.4756 16.1194 31.2062 15.7153 31.0715C15.1765 30.8021 14.7724 30.6674 14.3682 30.2633C13.9641 29.8592 13.6947 29.4551 13.56 28.9163C13.4253 28.5122 13.2906 27.9733 13.1559 26.8957C13.1559 25.6834 13.1559 25.414 13.1559 22.3158C13.1559 19.2176 13.1559 18.9482 13.1559 17.7358C13.1559 16.6582 13.4253 16.1194 13.56 15.7153C13.8294 15.1765 13.9641 14.7724 14.3682 14.3682C14.7724 13.9641 15.1765 13.6947 15.7153 13.56C16.1194 13.4253 16.6582 13.2906 17.7358 13.1559C18.9482 13.1559 19.3523 13.1559 22.3158 13.1559ZM22.3158 11.1353C19.2176 11.1353 18.9482 11.1353 17.7358 11.1353C16.5235 11.1353 15.7153 11.4048 15.0418 11.6742C14.3682 11.9436 13.6947 12.3477 13.0212 13.0212C12.3477 13.6947 12.0783 14.2335 11.6742 15.0418C11.4048 15.7153 11.27 16.5235 11.1353 17.7358C11.1353 18.9482 11.1353 19.3523 11.1353 22.3158C11.1353 25.414 11.1353 25.6834 11.1353 26.8957C11.1353 28.108 11.4048 28.9163 11.6742 29.5898C11.9436 30.2633 12.3477 30.9368 13.0212 31.6103C13.6947 32.2839 14.2335 32.5533 15.0418 32.9574C15.7153 33.2268 16.5235 33.3615 17.7358 33.4962C18.9482 33.4962 19.3523 33.4962 22.3158 33.4962C25.2793 33.4962 25.6834 33.4962 26.8957 33.4962C28.108 33.4962 28.9163 33.2268 29.5898 32.9574C30.2633 32.688 30.9368 32.2839 31.6103 31.6103C32.2839 30.9368 32.5533 30.398 32.9574 29.5898C33.2268 28.9163 33.3615 28.108 33.4962 26.8957C33.4962 25.6834 33.4962 25.2793 33.4962 22.3158C33.4962 19.3523 33.4962 18.9482 33.4962 17.7358C33.4962 16.5235 33.2268 15.7153 32.9574 15.0418C32.688 14.3682 32.2839 13.6947 31.6103 13.0212C30.9368 12.3477 30.398 12.0783 29.5898 11.6742C28.9163 11.4048 28.108 11.27 26.8957 11.1353C25.6834 11.1353 25.414 11.1353 22.3158 11.1353Z" fill="white"/>
<path d="M22.3158 16.5235C19.0829 16.5235 16.5235 19.0829 16.5235 22.3158C16.5235 25.5487 19.0829 28.108 22.3158 28.108C25.5487 28.108 28.108 25.5487 28.108 22.3158C28.108 19.0829 25.5487 16.5235 22.3158 16.5235ZM22.3158 26.0875C20.2952 26.0875 18.5441 24.471 18.5441 22.3158C18.5441 20.2952 20.1605 18.5441 22.3158 18.5441C24.3363 18.5441 26.0875 20.1605 26.0875 22.3158C26.0875 24.3363 24.3363 26.0875 22.3158 26.0875Z" fill="white"/>
<path d="M28.2427 17.7358C28.9867 17.7358 29.5898 17.1327 29.5898 16.3888C29.5898 15.6449 28.9867 15.0418 28.2427 15.0418C27.4988 15.0418 26.8957 15.6449 26.8957 16.3888C26.8957 17.1327 27.4988 17.7358 28.2427 17.7358Z" fill="white"/>
</svg>
