<svg width="27" height="27" viewBox="0 0 27 27" fill="none" xmlns="http://www.w3.org/2000/svg">
<path d="M22.7812 0H4.21875C1.8888 0 0 1.8888 0 4.21875V22.7812C0 25.1112 1.8888 27 4.21875 27H22.7812C25.1112 27 27 25.1112 27 22.7812V4.21875C27 1.8888 25.1112 0 22.7812 0Z" fill="#F12E80"/>
<path d="M13.5 7.7627C15.3563 7.7627 15.6094 7.7627 16.3688 7.7627C17.0438 7.7627 17.3813 7.93145 17.6344 8.01582C17.9719 8.18457 18.225 8.26895 18.4781 8.52207C18.7313 8.7752 18.9 9.02832 18.9844 9.36582C19.0688 9.61895 19.1531 9.95645 19.2375 10.6314C19.2375 11.3908 19.2375 11.5596 19.2375 13.5002C19.2375 15.4408 19.2375 15.6096 19.2375 16.3689C19.2375 17.0439 19.0688 17.3814 18.9844 17.6346C18.8156 17.9721 18.7313 18.2252 18.4781 18.4783C18.225 18.7314 17.9719 18.9002 17.6344 18.9846C17.3813 19.0689 17.0438 19.1533 16.3688 19.2377C15.6094 19.2377 15.4406 19.2377 13.5 19.2377C11.5594 19.2377 11.3906 19.2377 10.6313 19.2377C9.95626 19.2377 9.61876 19.0689 9.36564 18.9846C9.02814 18.8158 8.77501 18.7314 8.52189 18.4783C8.26876 18.2252 8.10001 17.9721 8.01564 17.6346C7.93126 17.3814 7.84689 17.0439 7.76251 16.3689C7.76251 15.6096 7.76251 15.4408 7.76251 13.5002C7.76251 11.5596 7.76251 11.3908 7.76251 10.6314C7.76251 9.95645 7.93126 9.61895 8.01564 9.36582C8.18439 9.02832 8.26876 8.7752 8.52189 8.52207C8.77501 8.26895 9.02814 8.1002 9.36564 8.01582C9.61876 7.93145 9.95626 7.84707 10.6313 7.7627C11.3906 7.7627 11.6438 7.7627 13.5 7.7627ZM13.5 6.49707C11.5594 6.49707 11.3906 6.49707 10.6313 6.49707C9.87189 6.49707 9.36564 6.66582 8.94376 6.83457C8.52189 7.00332 8.10001 7.25645 7.67814 7.67832C7.25626 8.1002 7.08751 8.4377 6.83439 8.94395C6.66564 9.36582 6.58126 9.87207 6.49689 10.6314C6.49689 11.3908 6.49689 11.6439 6.49689 13.5002C6.49689 15.4408 6.49689 15.6096 6.49689 16.3689C6.49689 17.1283 6.66564 17.6346 6.83439 18.0564C7.00314 18.4783 7.25626 18.9002 7.67814 19.3221C8.10001 19.7439 8.43751 19.9127 8.94376 20.1658C9.36564 20.3346 9.87189 20.4189 10.6313 20.5033C11.3906 20.5033 11.6438 20.5033 13.5 20.5033C15.3563 20.5033 15.6094 20.5033 16.3688 20.5033C17.1281 20.5033 17.6344 20.3346 18.0563 20.1658C18.4781 19.9971 18.9 19.7439 19.3219 19.3221C19.7438 18.9002 19.9125 18.5627 20.1656 18.0564C20.3344 17.6346 20.4188 17.1283 20.5031 16.3689C20.5031 15.6096 20.5031 15.3564 20.5031 13.5002C20.5031 11.6439 20.5031 11.3908 20.5031 10.6314C20.5031 9.87207 20.3344 9.36582 20.1656 8.94395C19.9969 8.52207 19.7438 8.1002 19.3219 7.67832C18.9 7.25645 18.5625 7.0877 18.0563 6.83457C17.6344 6.66582 17.1281 6.58145 16.3688 6.49707C15.6094 6.49707 15.4406 6.49707 13.5 6.49707Z" fill="white"/>
<path d="M13.5 9.87207C11.475 9.87207 9.87189 11.4752 9.87189 13.5002C9.87189 15.5252 11.475 17.1283 13.5 17.1283C15.525 17.1283 17.1281 15.5252 17.1281 13.5002C17.1281 11.4752 15.525 9.87207 13.5 9.87207ZM13.5 15.8627C12.2344 15.8627 11.1375 14.8502 11.1375 13.5002C11.1375 12.2346 12.15 11.1377 13.5 11.1377C14.7656 11.1377 15.8625 12.1502 15.8625 13.5002C15.8625 14.7658 14.7656 15.8627 13.5 15.8627Z" fill="white"/>
<path d="M17.2125 10.6314C17.6785 10.6314 18.0563 10.2537 18.0563 9.7877C18.0563 9.32171 17.6785 8.94395 17.2125 8.94395C16.7465 8.94395 16.3688 9.32171 16.3688 9.7877C16.3688 10.2537 16.7465 10.6314 17.2125 10.6314Z" fill="white"/>
</svg>
