<svg width="95" height="92" viewBox="0 0 95 92" fill="none" xmlns="http://www.w3.org/2000/svg">
<g clip-path="url(#clip0_976_223)">
<rect width="95" height="92" fill="white"/>
<path d="M0.76375 69V27H12.4038L33.7638 52.56H28.3638V27H42.1638V69H30.5238L9.16375 43.44H14.5638V69H0.76375ZM46.3638 57.48V49.68H68.3238V57.48H46.3638ZM57.4038 46.68C55.0038 46.68 52.8838 46.26 51.0438 45.42C49.2038 44.54 47.7638 43.34 46.7238 41.82C45.6838 40.26 45.1638 38.5 45.1638 36.54C45.1638 34.54 45.6838 32.78 46.7238 31.26C47.7638 29.74 49.2038 28.56 51.0438 27.72C52.8838 26.84 54.9838 26.4 57.3438 26.4C59.7438 26.4 61.8438 26.84 63.6438 27.72C65.4838 28.56 66.9238 29.74 67.9638 31.26C69.0038 32.78 69.5238 34.54 69.5238 36.54C69.5238 38.5 69.0038 40.26 67.9638 41.82C66.9238 43.34 65.4838 44.54 63.6438 45.42C61.8438 46.26 59.7638 46.68 57.4038 46.68ZM57.3438 40.08C58.2238 40.08 58.9638 39.78 59.5638 39.18C60.1638 38.58 60.4638 37.7 60.4638 36.54C60.4638 35.34 60.1638 34.46 59.5638 33.9C58.9638 33.3 58.2238 33 57.3438 33C56.4638 33 55.7238 33.3 55.1238 33.9C54.5238 34.46 54.2238 35.34 54.2238 36.54C54.2238 37.7 54.5238 38.58 55.1238 39.18C55.7238 39.78 56.4638 40.08 57.3438 40.08ZM80.0781 69V31.92L86.1381 37.68H72.8781V27H94.2381V69H80.0781Z" fill="#E4DCD7"/>
</g>
<defs>
<clipPath id="clip0_976_223">
<rect width="95" height="92" fill="white"/>
</clipPath>
</defs>
</svg>
