<svg width="106" height="74" viewBox="0 0 106 74" fill="none" xmlns="http://www.w3.org/2000/svg">
<path d="M7.39276 11.5947C7.39276 8.74702 9.70129 6.43848 12.549 6.43848H99.8546C102.702 6.43848 105.011 8.74701 105.011 11.5947V68.809C105.011 71.6567 102.702 73.9652 99.8546 73.9652H12.549C9.7013 73.9652 7.39276 71.6567 7.39276 68.809V11.5947Z" fill="#FFC93E"/>
<path d="M2.70795 6.9098C2.70795 4.06208 5.01648 1.75354 7.8642 1.75354H95.1698C98.0175 1.75354 100.326 4.06207 100.326 6.90979V64.124C100.326 66.9717 98.0175 69.2803 95.1698 69.2803H7.86421C5.01649 69.2803 2.70795 66.9717 2.70795 64.124V6.9098Z" fill="white"/>
<path fill-rule="evenodd" clip-rule="evenodd" d="M7.8642 0.03479H95.1698C98.9668 0.03479 102.045 3.11283 102.045 6.9098V64.124C102.045 67.921 98.9668 70.999 95.1698 70.999H7.86421C4.06725 70.999 0.989197 67.921 0.989197 64.124V6.9098C0.989197 3.11284 4.06724 0.03479 7.8642 0.03479ZM7.8642 1.75354C5.01648 1.75354 2.70795 4.06208 2.70795 6.9098V64.124C2.70795 66.9717 5.01649 69.2803 7.86421 69.2803H95.1698C98.0175 69.2803 100.326 66.9717 100.326 64.124V6.9098C100.326 4.06207 98.0175 1.75354 95.1698 1.75354H7.8642Z" fill="#FFC93E"/>
<path d="M8.7572 17.7614C8.7572 15.8629 10.2962 14.3239 12.1947 14.3239H52.1675C54.066 14.3239 55.605 15.8629 55.605 17.7614V39.4545C55.605 41.353 54.066 42.892 52.1675 42.892H12.1947C10.2962 42.892 8.7572 41.353 8.7572 39.4545V17.7614Z" fill="#FFC93E"/>
<path fill-rule="evenodd" clip-rule="evenodd" d="M8.08958 47.1437C8.08531 46.1944 8.85135 45.4215 9.80058 45.4172L54.0132 45.2182C54.9624 45.2139 55.7354 45.9799 55.7397 46.9292C55.7439 47.8784 54.9779 48.6514 54.0287 48.6556L9.81605 48.8547C8.86682 48.8589 8.09386 48.0929 8.08958 47.1437Z" fill="#FFC93E"/>
<path fill-rule="evenodd" clip-rule="evenodd" d="M8.36334 52.0865C8.36334 51.6119 8.7481 51.2272 9.22272 51.2272H43.1874C43.662 51.2272 44.0468 51.6119 44.0468 52.0865C44.0468 52.5612 43.662 52.9459 43.1874 52.9459H9.22272C8.7481 52.9459 8.36334 52.5612 8.36334 52.0865Z" fill="#FFC93E"/>
<path fill-rule="evenodd" clip-rule="evenodd" d="M8.36334 60.6318C8.36334 60.1572 8.7481 59.7725 9.22272 59.7725H43.1874C43.662 59.7725 44.0468 60.1572 44.0468 60.6318C44.0468 61.1065 43.662 61.4912 43.1874 61.4912H9.22272C8.7481 61.4912 8.36334 61.1065 8.36334 60.6318Z" fill="#FFC93E"/>
<path fill-rule="evenodd" clip-rule="evenodd" d="M8.36334 55.2883C8.36334 54.8137 8.7481 54.429 9.22272 54.429H26.6443C27.1189 54.429 27.5036 54.8137 27.5036 55.2883C27.5036 55.763 27.1189 56.1477 26.6443 56.1477H9.22272C8.7481 56.1477 8.36334 55.763 8.36334 55.2883Z" fill="#FFC93E"/>
<path fill-rule="evenodd" clip-rule="evenodd" d="M8.36334 63.2671C8.36334 62.7925 8.7481 62.4077 9.22272 62.4077H21.9595C22.4341 62.4077 22.8188 62.7925 22.8188 63.2671C22.8188 63.7417 22.4341 64.1265 21.9595 64.1265H9.22272C8.7481 64.1265 8.36334 63.7417 8.36334 63.2671Z" fill="#FFC93E"/>
<path fill-rule="evenodd" clip-rule="evenodd" d="M81.4163 15.9338C81.4163 15.4592 81.8011 15.0745 82.2757 15.0745H96.4032C96.8779 15.0745 97.2626 15.4592 97.2626 15.9338C97.2626 16.4085 96.8779 16.7932 96.4032 16.7932H82.2757C81.8011 16.7932 81.4163 16.4085 81.4163 15.9338Z" fill="#FFC93E"/>
<path fill-rule="evenodd" clip-rule="evenodd" d="M81.4169 19.4395C81.4169 18.9648 81.8017 18.5801 82.2763 18.5801H89.9881C90.4628 18.5801 90.8475 18.9648 90.8475 19.4395C90.8475 19.9141 90.4628 20.2988 89.9881 20.2988H82.2763C81.8017 20.2988 81.4169 19.9141 81.4169 19.4395Z" fill="#FFC93E"/>
<path fill-rule="evenodd" clip-rule="evenodd" d="M81.4163 50.7509C81.4163 50.2762 81.8011 49.8915 82.2757 49.8915H96.4032C96.8779 49.8915 97.2626 50.2762 97.2626 50.7509C97.2626 51.2255 96.8779 51.6102 96.4032 51.6102H82.2757C81.8011 51.6102 81.4163 51.2255 81.4163 50.7509Z" fill="#FFC93E"/>
<path fill-rule="evenodd" clip-rule="evenodd" d="M81.4169 54.2565C81.4169 53.7819 81.8017 53.3971 82.2763 53.3971H89.9881C90.4628 53.3971 90.8475 53.7819 90.8475 54.2565C90.8475 54.7311 90.4628 55.1158 89.9881 55.1158H82.2763C81.8017 55.1158 81.4169 54.7311 81.4169 54.2565Z" fill="#FFC93E"/>
<path fill-rule="evenodd" clip-rule="evenodd" d="M81.4163 32.0114C81.4163 31.5367 81.8011 31.152 82.2757 31.152H96.4032C96.8779 31.152 97.2626 31.5367 97.2626 32.0114C97.2626 32.486 96.8779 32.8707 96.4032 32.8707H82.2757C81.8011 32.8707 81.4163 32.486 81.4163 32.0114Z" fill="#FFC93E"/>
<path fill-rule="evenodd" clip-rule="evenodd" d="M81.4169 35.517C81.4169 35.0423 81.8017 34.6576 82.2763 34.6576H89.9881C90.4628 34.6576 90.8475 35.0423 90.8475 35.517C90.8475 35.9916 90.4628 36.3763 89.9881 36.3763H82.2763C81.8017 36.3763 81.4169 35.9916 81.4169 35.517Z" fill="#FFC93E"/>
<path fill-rule="evenodd" clip-rule="evenodd" d="M62.7405 13.3369H76.6777C78.5762 13.3369 80.1152 14.8759 80.1152 16.7744V25.7976C80.1152 27.6961 78.5762 29.2351 76.6777 29.2351H62.7405C60.8421 29.2351 59.303 27.6961 59.303 25.7976V16.7744C59.303 14.8759 60.8421 13.3369 62.7405 13.3369ZM62.7405 15.0557C61.7913 15.0557 61.0218 15.8252 61.0218 16.7744V25.7976C61.0218 26.7468 61.7913 27.5163 62.7405 27.5163H76.6777C77.6269 27.5163 78.3964 26.7468 78.3964 25.7976V16.7744C78.3964 15.8252 77.6269 15.0557 76.6777 15.0557H62.7405Z" fill="#FFC93E"/>
<path d="M36.3785 27.2581L32.2638 24.3188C31.1262 23.5062 29.546 24.3194 29.546 25.7174V31.5369C29.546 32.9275 31.1112 33.7424 32.2504 32.945L36.365 30.0647C37.3368 29.3844 37.3437 27.9476 36.3785 27.2581Z" fill="white"/>
<path fill-rule="evenodd" clip-rule="evenodd" d="M9.71895 5.57788H93.5386C95.019 5.57788 96.2191 6.77797 96.2191 8.25838C96.2191 9.73878 95.019 10.9389 93.5386 10.9389H9.71895C8.23856 10.9389 7.03845 9.73879 7.03845 8.25838C7.03845 6.77798 8.23855 5.57788 9.71895 5.57788ZM9.71895 7.29663C9.18779 7.29663 8.7572 7.72722 8.7572 8.25838C8.7572 8.78954 9.1878 9.22013 9.71895 9.22013H93.5386C94.0698 9.22013 94.5004 8.78954 94.5004 8.25838C94.5004 7.72722 94.0698 7.29663 93.5386 7.29663H9.71895Z" fill="#FFC93E"/>
<path fill-rule="evenodd" clip-rule="evenodd" d="M62.7405 30.0763H76.6777C78.5762 30.0763 80.1152 31.6153 80.1152 33.5138V42.537C80.1152 44.4355 78.5762 45.9745 76.6777 45.9745H62.7405C60.8421 45.9745 59.303 44.4354 59.303 42.537V33.5138C59.303 31.6153 60.8421 30.0763 62.7405 30.0763ZM62.7405 31.795C61.7913 31.795 61.0218 32.5646 61.0218 33.5138V42.537C61.0218 43.4862 61.7913 44.2557 62.7405 44.2557H76.6777C77.6269 44.2557 78.3964 43.4862 78.3964 42.537V33.5138C78.3964 32.5646 77.6269 31.795 76.6777 31.795H62.7405Z" fill="#FFC93E"/>
<path fill-rule="evenodd" clip-rule="evenodd" d="M62.7405 47.891H76.6777C78.5762 47.891 80.1152 49.43 80.1152 51.3285V60.3517C80.1152 62.2502 78.5762 63.7892 76.6777 63.7892H62.7405C60.8421 63.7892 59.303 62.2501 59.303 60.3517V51.3285C59.303 49.43 60.8421 47.891 62.7405 47.891ZM62.7405 49.6097C61.7913 49.6097 61.0218 50.3793 61.0218 51.3285V60.3517C61.0218 61.3009 61.7913 62.0704 62.7405 62.0704H76.6777C77.6269 62.0704 78.3964 61.3009 78.3964 60.3517V51.3285C78.3964 50.3793 77.6269 49.6097 76.6777 49.6097H62.7405Z" fill="#FFC93E"/>
<path fill-rule="evenodd" clip-rule="evenodd" d="M68.9708 21.9737C68.9708 22.3213 69.3621 22.525 69.6469 22.3257L70.8484 21.4847C71.0913 21.3146 71.093 20.9554 70.8517 20.783L69.6503 19.9248C69.3659 19.7216 68.9708 19.9249 68.9708 20.2744V21.9737ZM70.6493 18.5262L71.8508 19.3844C73.0573 20.2463 73.0488 22.0424 71.834 22.8927L70.6326 23.7337C69.2086 24.7305 67.2521 23.7118 67.2521 21.9737V20.2744C67.2521 18.5269 69.2273 17.5104 70.6493 18.5262Z" fill="#FFC93E"/>
<path fill-rule="evenodd" clip-rule="evenodd" d="M68.9708 39.3766C68.9708 39.7243 69.3621 39.928 69.6469 39.7286L70.8484 38.8876C71.0913 38.7176 71.093 38.3583 70.8517 38.186L69.6503 37.3277C69.3659 37.1246 68.9708 37.3279 68.9708 37.6774V39.3766ZM70.6493 35.9292L71.8508 36.7874C73.0573 37.6493 73.0488 39.4454 71.834 40.2957L70.6326 41.1367C69.2086 42.1335 67.2521 41.1148 67.2521 39.3766V37.6774C67.2521 35.9299 69.2273 34.9134 70.6493 35.9292Z" fill="#FFC93E"/>
<path fill-rule="evenodd" clip-rule="evenodd" d="M68.9708 56.9632C68.9708 57.3108 69.3621 57.5145 69.6469 57.3152L70.8484 56.4742C71.0913 56.3041 71.093 55.9449 70.8517 55.7725L69.6503 54.9143C69.3659 54.7111 68.9708 54.9144 68.9708 55.2639V56.9632ZM70.6493 53.5157L71.8508 54.3739C73.0573 55.2358 73.0488 57.0319 71.834 57.8822L70.6326 58.7232C69.2086 59.72 67.2521 58.7013 67.2521 56.9632V55.2639C67.2521 53.5164 69.2273 52.4999 70.6493 53.5157Z" fill="#FFC93E"/>
</svg>
