<svg width="95" height="92" viewBox="0 0 95 92" fill="none" xmlns="http://www.w3.org/2000/svg">
<rect width="95" height="92" fill="white"/>
<path d="M77.9502 45.0585C77.9502 60.9765 64.9284 73.8806 48.8653 73.8806C32.8021 73.8806 19.7804 60.9765 19.7804 45.0585C19.7804 29.1404 32.8021 16.2363 48.8653 16.2363C64.9284 16.2363 77.9502 29.1404 77.9502 45.0585Z" fill="#E4DCD7"/>
<path d="M79.6756 45.0584C79.6756 61.9207 65.8814 75.5904 48.8653 75.5904C31.8492 75.5904 18.0549 61.9207 18.0549 45.0584C18.0549 28.196 31.8492 14.5264 48.8653 14.5264C65.8814 14.5264 79.6756 28.196 79.6756 45.0584ZM48.8653 73.8805C64.9284 73.8805 77.9502 60.9764 77.9502 45.0584C77.9502 29.1403 64.9284 16.2362 48.8653 16.2362C32.8021 16.2362 19.7804 29.1403 19.7804 45.0584C19.7804 60.9764 32.8021 73.8805 48.8653 73.8805Z" fill="#E4DCD7"/>
<path d="M79.6756 45.0584C79.6756 61.9207 65.8814 75.5904 48.8653 75.5904C31.8492 75.5904 18.0549 61.9207 18.0549 45.0584C18.0549 28.196 31.8492 14.5264 48.8653 14.5264C65.8814 14.5264 79.6756 28.196 79.6756 45.0584ZM48.8653 73.8805C64.9284 73.8805 77.9502 60.9764 77.9502 45.0584C77.9502 29.1403 64.9284 16.2362 48.8653 16.2362C32.8021 16.2362 19.7804 29.1403 19.7804 45.0584C19.7804 60.9764 32.8021 73.8805 48.8653 73.8805Z" stroke="#E4DCD7"/>
<path fill-rule="evenodd" clip-rule="evenodd" d="M45.4144 70.4607C61.4775 70.4607 74.4992 57.5566 74.4992 41.6386C74.4992 34.5501 71.917 28.0593 67.6339 23.0396C73.9436 28.3265 77.9502 36.2288 77.9502 45.0583C77.9502 60.9763 64.9284 73.8805 48.8653 73.8805C39.9552 73.8805 31.9809 69.9101 26.6458 63.6574C31.7113 67.9018 38.2613 70.4607 45.4144 70.4607Z" fill="#E4DCD7"/>
<path d="M56.0653 59.6522C79.2431 46.3914 94.2257 29.1076 89.5299 21.0477C86.6921 16.1768 77.3163 15.7895 65.2254 19.1727C66.8459 20.2112 68.5671 21.5752 69.2251 22.1273C75.4252 21.0589 79.9267 21.708 81.4671 24.3519C84.8855 30.2193 72.427 43.6892 53.6401 54.4377C34.8533 65.1863 16.8524 69.1433 13.434 63.276C11.7788 60.4349 13.8461 55.8113 18.552 50.5772C18.2273 48.9113 18.0508 46.4781 18.0413 45.446C7.69188 54.8063 2.55415 63.849 5.59566 69.0694C10.2914 77.1293 32.8874 72.9131 56.0653 59.6522Z" fill="white"/>
<path fill-rule="evenodd" clip-rule="evenodd" d="M19.7316 41.6022L19.7667 45.4304C19.7754 46.3834 19.9454 48.7103 20.2461 50.2528L20.408 51.0831L19.8403 51.7145C17.5542 54.2571 15.9987 56.5567 15.2034 58.4739C14.3964 60.4195 14.4872 61.6639 14.9283 62.4209C15.3839 63.203 16.4834 63.9238 18.7175 64.1835C20.9123 64.4386 23.8592 64.1968 27.4002 63.4184C34.4616 61.8662 43.4931 58.2687 52.7774 52.9568C62.0616 47.645 69.7213 41.6929 74.6085 36.4089C77.0593 33.7592 78.7441 31.3511 79.6185 29.3399C80.5086 27.2928 80.4284 25.9888 79.9728 25.2067C79.5624 24.5024 78.6364 23.8475 76.799 23.5322C74.9763 23.2193 72.5181 23.2953 69.5206 23.8118L68.7257 23.9487L68.11 23.4321C67.484 22.9068 65.8247 21.5929 64.2883 20.6083L61.084 18.5546L64.7565 17.527C70.9054 15.8065 76.4835 15.0079 80.9642 15.3088C85.3808 15.6055 89.1729 17.0151 91.0242 20.1927C92.5569 22.8234 92.3586 26 91.1595 29.2088C89.9557 32.4303 87.6601 35.9363 84.559 39.5137C78.3458 46.6812 68.6394 54.4324 56.9279 61.1329C45.2165 67.8334 33.5893 72.2879 24.2189 74.0363C19.542 74.909 15.3302 75.1261 11.913 74.5485C8.50928 73.9731 5.63402 72.555 4.10132 69.9243C2.12243 66.5277 2.99048 62.2484 5.27443 58.0053C7.59899 53.6868 11.6236 48.9352 16.8781 44.183L19.7316 41.6022ZM67.4265 18.5908C78.4458 15.8541 86.8667 16.4765 89.5299 21.0476C94.2257 29.1075 79.243 46.3913 56.0652 59.6521C32.8874 72.913 10.2914 77.1292 5.59561 69.0693C2.72107 64.1354 7.15242 55.7874 16.3845 46.9839C16.9207 46.4726 17.4731 45.9597 18.0413 45.4459C18.0458 45.9414 18.0889 46.7599 18.1683 47.6614C18.2544 48.6376 18.3832 49.711 18.552 50.5771C13.8461 55.8112 11.7787 60.4348 13.434 63.2759C16.8524 69.1432 34.8533 65.1862 53.6401 54.4376C72.4269 43.689 84.8855 30.2191 81.4671 24.3518C79.9267 21.7078 75.4252 21.0588 69.225 22.1272C68.8194 21.7868 68.0097 21.1379 67.0687 20.447C66.4832 20.0171 65.8469 19.5709 65.2254 19.1725C65.9697 18.9643 66.7037 18.7703 67.4265 18.5908Z" fill="#E4DCD7"/>
<path fill-rule="evenodd" clip-rule="evenodd" d="M87.8044 20.1925C92.5002 28.2524 77.5175 45.5362 54.3397 58.797C35.1442 69.7795 16.3477 74.5583 7.78796 71.2978C15.2982 76.0854 35.4516 71.4457 56.0652 59.652C79.243 46.3911 94.2257 29.1073 89.5299 21.0475C88.7231 19.6627 87.3879 18.6403 85.6121 17.9639C86.5463 18.5594 87.2849 19.3008 87.8044 20.1925ZM68.0441 21.182C68.5528 21.5751 68.9692 21.9124 69.225 22.127C73.1007 21.4592 76.3127 21.4624 78.5525 22.2045C76.5079 20.7242 72.8049 20.4273 68.0441 21.182ZM18.2388 48.3877C17.7514 48.8113 17.2234 49.2948 16.8265 49.722C13.1769 53.6509 10.0532 59.5797 11.7085 62.4208C12.286 63.412 13.2797 64.1228 14.623 64.5679C14.1257 64.2078 13.7264 63.7777 13.434 63.2757C11.7787 60.4346 13.8461 55.811 18.552 50.5769C18.4243 49.9219 18.3195 49.1482 18.2388 48.3877Z" fill="#E4DCD7"/>
<path fill-rule="evenodd" clip-rule="evenodd" d="M79.4391 18.8057C77.3255 18.674 74.9907 18.9155 72.844 19.3038C72.6096 19.3463 72.385 19.1924 72.3422 18.9601C72.2994 18.7279 72.4547 18.5052 72.689 18.4628C74.874 18.0675 77.2842 17.8148 79.4932 17.9525C81.692 18.0895 83.7552 18.6172 85.1813 19.8429C85.3613 19.9976 85.3806 20.2676 85.2245 20.4459C85.0684 20.6242 84.796 20.6434 84.616 20.4887C83.3999 19.4435 81.5629 18.9381 79.4391 18.8057Z" fill="#E4DCD7"/>
<path fill-rule="evenodd" clip-rule="evenodd" d="M36.5384 66.6098C36.7369 67.039 36.5467 67.5464 36.1136 67.7432C28.7218 71.1005 19.6646 72.1115 16.041 72.2022C15.5647 72.2141 15.1688 71.8411 15.1568 71.3691C15.1447 70.8971 15.5211 70.5048 15.9974 70.4929C19.4914 70.4054 28.2926 69.4145 35.3947 66.1888C35.8278 65.9921 36.3399 66.1805 36.5384 66.6098Z" fill="white"/>
<path d="M67.7249 38.6541C67.7249 39.5099 67.0248 40.2036 66.1612 40.2036C65.2976 40.2036 64.5975 39.5099 64.5975 38.6541C64.5975 37.7983 65.2976 37.1045 66.1612 37.1045C67.0248 37.1045 67.7249 37.7983 67.7249 38.6541Z" fill="white"/>
<path d="M41.8557 24.5891C41.8557 25.4449 41.1556 26.1387 40.292 26.1387C39.4284 26.1387 38.7283 25.4449 38.7283 24.5891C38.7283 23.7333 39.4284 23.0396 40.292 23.0396C41.1556 23.0396 41.8557 23.7333 41.8557 24.5891Z" fill="white"/>
<path d="M30.47 36.4099C30.47 37.2657 29.77 37.9595 28.9063 37.9595C28.0427 37.9595 27.3427 37.2657 27.3427 36.4099C27.3427 35.5541 28.0427 34.8604 28.9063 34.8604C29.77 34.8604 30.47 35.5541 30.47 36.4099Z" fill="white"/>
<path d="M38.1807 52.0124C38.1807 53.3404 37.0944 54.4169 35.7543 54.4169C34.4142 54.4169 33.3279 53.3404 33.3279 52.0124C33.3279 50.6844 34.4142 49.6079 35.7543 49.6079C37.0944 49.6079 38.1807 50.6844 38.1807 52.0124Z" fill="white"/>
<path d="M49.0895 36.2497C49.0895 37.5777 48.0032 38.6542 46.6631 38.6542C45.323 38.6542 44.2367 37.5777 44.2367 36.2497C44.2367 34.9217 45.323 33.8452 46.6631 33.8452C48.0032 33.8452 49.0895 34.9217 49.0895 36.2497Z" fill="white"/>
<path d="M61.064 26.1389C61.064 27.4668 59.9777 28.5434 58.6376 28.5434C57.2975 28.5434 56.2112 27.4668 56.2112 26.1389C56.2112 24.8109 57.2975 23.7344 58.6376 23.7344C59.9777 23.7344 61.064 24.8109 61.064 26.1389Z" fill="white"/>
<path d="M57.1509 49.6081C57.1509 50.9361 56.0646 52.0126 54.7245 52.0126C53.3844 52.0126 52.2981 50.9361 52.2981 49.6081C52.2981 48.2801 53.3844 47.2036 54.7245 47.2036C56.0646 47.2036 57.1509 48.2801 57.1509 49.6081Z" fill="white"/>
</svg>
