<svg width="120" height="113" viewBox="0 0 120 113" fill="none" xmlns="http://www.w3.org/2000/svg">
<path d="M93.2148 56.4998C93.2148 72.9369 79.1691 86.2618 61.8429 86.2618C44.5168 86.2618 30.4711 72.9369 30.4711 56.4998C30.4711 40.0627 44.5168 26.7378 61.8429 26.7378C79.1691 26.7378 93.2148 40.0627 93.2148 56.4998Z" fill="#E4DCD7"/>
<path d="M95.0759 56.4998C95.0759 73.912 80.197 88.0274 61.8429 88.0274C43.4889 88.0274 28.61 73.912 28.61 56.4998C28.61 39.0876 43.4889 24.9722 61.8429 24.9722C80.197 24.9722 95.0759 39.0876 95.0759 56.4998ZM61.8429 86.2618C79.1691 86.2618 93.2148 72.9369 93.2148 56.4998C93.2148 40.0627 79.1691 26.7378 61.8429 26.7378C44.5167 26.7378 30.4711 40.0627 30.4711 56.4998C30.4711 72.9369 44.5167 86.2618 61.8429 86.2618Z" fill="#E4DCD7"/>
<path d="M95.0759 56.4998C95.0759 73.912 80.197 88.0274 61.8429 88.0274C43.4889 88.0274 28.61 73.912 28.61 56.4998C28.61 39.0876 43.4889 24.9722 61.8429 24.9722C80.197 24.9722 95.0759 39.0876 95.0759 56.4998ZM61.8429 86.2618C79.1691 86.2618 93.2148 72.9369 93.2148 56.4998C93.2148 40.0627 79.1691 26.7378 61.8429 26.7378C44.5167 26.7378 30.4711 40.0627 30.4711 56.4998C30.4711 72.9369 44.5167 86.2618 61.8429 86.2618Z" stroke="#E4DCD7"/>
<path fill-rule="evenodd" clip-rule="evenodd" d="M58.1207 82.7307C75.4469 82.7307 89.4925 69.4058 89.4925 52.9687C89.4925 45.6491 86.7073 38.9466 82.0873 33.7632C88.8932 39.2226 93.2148 47.3825 93.2148 56.5C93.2148 72.9371 79.1691 86.262 61.8429 86.262C52.2323 86.262 43.631 82.1621 37.8763 75.7055C43.3401 80.0884 50.4051 82.7307 58.1207 82.7307Z" fill="#E4DCD7"/>
<path d="M69.6091 71.5694C94.6094 57.8762 110.77 40.0287 105.705 31.7061C102.644 26.6763 92.5311 26.2764 79.4895 29.7698C81.2374 30.8423 83.0939 32.2507 83.8036 32.8208C90.4913 31.7176 95.3468 32.3878 97.0083 35.118C100.695 41.1767 87.2573 55.0858 66.9933 66.1849C46.7292 77.2839 27.3129 81.37 23.6257 75.3113C21.8403 72.3776 24.0702 67.6032 29.1462 62.1984C28.7959 60.4782 28.6055 57.9657 28.5953 56.8999C17.4321 66.5654 11.8904 75.903 15.171 81.2937C20.236 89.6163 44.6088 85.2626 69.6091 71.5694Z" fill="white"/>
<path fill-rule="evenodd" clip-rule="evenodd" d="M30.4185 52.9309L30.4563 56.8839C30.4657 57.868 30.6492 60.2707 30.9735 61.8635L31.1481 62.7209L30.5357 63.373C28.07 65.9985 26.3921 68.3731 25.5343 70.3527C24.6638 72.3617 24.7618 73.6468 25.2375 74.4285C25.729 75.236 26.9149 75.9803 29.3246 76.2485C31.692 76.5119 34.8706 76.2623 38.6901 75.4585C46.3067 73.8556 56.0484 70.1408 66.0627 64.6558C76.077 59.1707 84.339 53.0245 89.6105 47.5682C92.2539 44.8321 94.0712 42.3454 95.0144 40.2687C95.9744 38.1548 95.8879 36.8083 95.3965 36.0007C94.9539 35.2735 93.955 34.5972 91.9732 34.2716C90.0072 33.9486 87.3557 34.0269 84.1225 34.5603L83.2651 34.7017L82.6009 34.1682C81.9257 33.6258 80.1359 32.2691 78.4788 31.2524L75.0224 29.1317L78.9837 28.0706C85.6161 26.294 91.6328 25.4693 96.4659 25.7801C101.23 26.0864 105.32 27.542 107.317 30.8232C108.97 33.5397 108.756 36.8199 107.463 40.1333C106.164 43.4599 103.688 47.0802 100.343 50.7742C93.6416 58.1754 83.172 66.1794 70.5396 73.0984C57.9073 80.0175 45.3659 84.6172 35.2587 86.4226C30.214 87.3237 25.6711 87.548 21.9851 86.9515C18.3138 86.3573 15.2124 84.893 13.5592 82.1765C11.4247 78.6691 12.361 74.2503 14.8246 69.8689C17.3319 65.4095 21.673 60.503 27.3407 55.5958L30.4185 52.9309ZM81.8637 29.1691C93.7495 26.3431 102.832 26.9859 105.705 31.706C110.77 40.0287 94.6094 57.8761 69.6091 71.5694C44.6088 85.2626 20.236 89.6163 15.171 81.2937C12.0704 76.1989 16.8502 67.5787 26.8082 58.4881C27.3866 57.9601 27.9825 57.4305 28.5953 56.8999C28.6002 57.4116 28.6466 58.2568 28.7323 59.1877C28.8252 60.1957 28.964 61.3041 29.1462 62.1984C24.0702 67.6031 21.8403 72.3775 23.6257 75.3113C27.3129 81.37 46.7292 77.2839 66.9932 66.1848C87.2573 55.0857 100.695 41.1766 97.0083 35.1179C95.3467 32.3878 90.4913 31.7176 83.8036 32.8208C83.3661 32.4693 82.4928 31.7993 81.4777 31.0858C80.8462 30.6419 80.1599 30.1811 79.4895 29.7698C80.2923 29.5547 81.084 29.3544 81.8637 29.1691Z" fill="#E4DCD7"/>
<path fill-rule="evenodd" clip-rule="evenodd" d="M103.844 30.8233C108.909 39.146 92.7482 56.9934 67.7479 70.6866C47.043 82.0272 26.7686 86.9618 17.5358 83.5951C25.6366 88.5388 47.3746 83.7478 69.6091 71.5695C94.6094 57.8762 110.77 40.0288 105.705 31.7061C104.835 30.2762 103.395 29.2204 101.479 28.522C102.487 29.1369 103.284 29.9026 103.844 30.8233ZM82.5299 31.845C83.0786 32.251 83.5277 32.5993 83.8036 32.8209C87.9841 32.1313 91.4486 32.1346 93.8646 32.9009C91.6591 31.3723 87.665 31.0658 82.5299 31.845ZM28.8083 59.9378C28.2827 60.3753 27.7131 60.8745 27.285 61.3157C23.3484 65.3727 19.9792 71.4948 21.7646 74.4285C22.3875 75.4521 23.4593 76.1861 24.9083 76.6457C24.3718 76.2739 23.9412 75.8297 23.6257 75.3114C21.8403 72.3776 24.0702 67.6032 29.1461 62.1985C29.0084 61.5221 28.8954 60.7231 28.8083 59.9378Z" fill="#E4DCD7"/>
<path fill-rule="evenodd" clip-rule="evenodd" d="M94.8208 29.3914C92.541 29.2554 90.0227 29.5047 87.7072 29.9058C87.4544 29.9496 87.212 29.7907 87.1659 29.5508C87.1197 29.311 87.2872 29.0811 87.54 29.0373C89.8967 28.6291 92.4965 28.3682 94.8792 28.5103C97.2509 28.6518 99.4764 29.1967 101.015 30.4624C101.209 30.6221 101.23 30.9009 101.061 31.0851C100.893 31.2692 100.599 31.289 100.405 31.1293C99.0931 30.05 97.1117 29.5281 94.8208 29.3914Z" fill="#E4DCD7"/>
<path fill-rule="evenodd" clip-rule="evenodd" d="M48.5469 78.754C48.761 79.1972 48.5559 79.7212 48.0887 79.9243C40.1157 83.3911 30.3463 84.4351 26.4378 84.5287C25.924 84.5411 25.497 84.1559 25.484 83.6685C25.471 83.1811 25.877 82.776 26.3908 82.7637C30.1594 82.6734 39.6527 81.6502 47.3132 78.3193C47.7804 78.1161 48.3328 78.3107 48.5469 78.754Z" fill="white"/>
<path d="M82.1856 49.8867C82.1856 50.7704 81.4305 51.4868 80.499 51.4868C79.5675 51.4868 78.8123 50.7704 78.8123 49.8867C78.8123 49.003 79.5675 48.2866 80.499 48.2866C81.4305 48.2866 82.1856 49.003 82.1856 49.8867Z" fill="white"/>
<path d="M54.2823 35.3628C54.2823 36.2465 53.5272 36.9629 52.5956 36.9629C51.6641 36.9629 50.909 36.2465 50.909 35.3628C50.909 34.4791 51.6641 33.7627 52.5956 33.7627C53.5272 33.7627 54.2823 34.4791 54.2823 35.3628Z" fill="white"/>
<path d="M42.0014 47.5693C42.0014 48.453 41.2462 49.1694 40.3147 49.1694C39.3832 49.1694 38.6281 48.453 38.6281 47.5693C38.6281 46.6856 39.3832 45.9692 40.3147 45.9692C41.2462 45.9692 42.0014 46.6856 42.0014 47.5693Z" fill="white"/>
<path d="M50.3183 63.6807C50.3183 65.0519 49.1465 66.1636 47.7011 66.1636C46.2556 66.1636 45.0839 65.0519 45.0839 63.6807C45.0839 62.3094 46.2556 61.1978 47.7011 61.1978C49.1465 61.1978 50.3183 62.3094 50.3183 63.6807Z" fill="white"/>
<path d="M62.0849 47.4038C62.0849 48.7751 60.9131 49.8867 59.4677 49.8867C58.0222 49.8867 56.8505 48.7751 56.8505 47.4038C56.8505 46.0325 58.0222 44.9209 59.4677 44.9209C60.9131 44.9209 62.0849 46.0325 62.0849 47.4038Z" fill="white"/>
<path d="M75.001 36.9629C75.001 38.3342 73.8292 39.4458 72.3838 39.4458C70.9383 39.4458 69.7666 38.3342 69.7666 36.9629C69.7666 35.5916 70.9383 34.48 72.3838 34.48C73.8292 34.48 75.001 35.5916 75.001 36.9629Z" fill="white"/>
<path d="M70.7802 61.1978C70.7802 62.569 69.6084 63.6807 68.163 63.6807C66.7175 63.6807 65.5458 62.569 65.5458 61.1978C65.5458 59.8265 66.7175 58.7148 68.163 58.7148C69.6084 58.7148 70.7802 59.8265 70.7802 61.1978Z" fill="white"/>
</svg>
