<svg width="169" height="117" viewBox="0 0 169 117" fill="none" xmlns="http://www.w3.org/2000/svg">
<path d="M141.468 58.5C141.468 88.6104 117.059 113.02 86.9484 113.02C56.8379 113.02 32.4286 88.6104 32.4286 58.5C32.4286 28.3895 56.8379 3.98022 86.9484 3.98022C117.059 3.98022 141.468 28.3895 141.468 58.5Z" fill="white"/>
<path fill-rule="evenodd" clip-rule="evenodd" d="M144.702 58.5C144.702 90.3967 118.845 116.254 86.9484 116.254C55.0516 116.254 29.1942 90.3967 29.1942 58.5C29.1942 26.6032 55.0516 0.74585 86.9484 0.74585C118.845 0.74585 144.702 26.6032 144.702 58.5ZM86.9484 113.02C117.059 113.02 141.468 88.6104 141.468 58.5C141.468 28.3895 117.059 3.98022 86.9484 3.98022C56.8379 3.98022 32.4286 28.3895 32.4286 58.5C32.4286 88.6104 56.8379 113.02 86.9484 113.02Z" fill="#FFC93E"/>
<path fill-rule="evenodd" clip-rule="evenodd" d="M80.4796 106.551C110.59 106.551 134.999 82.1416 134.999 52.0312C134.999 38.6227 130.159 26.3447 122.13 16.8494C133.958 26.8502 141.468 41.798 141.468 58.4999C141.468 88.6103 117.059 113.02 86.9484 113.02C70.2464 113.02 55.2986 105.509 45.2978 93.6817C54.7932 101.711 67.0711 106.551 80.4796 106.551Z" fill="#FFC93E"/>
<path d="M100.445 86.1053C143.892 61.0212 171.977 28.3273 163.174 13.0813C157.855 3.86741 140.28 3.13486 117.616 9.53438C120.653 11.499 123.879 14.079 125.113 15.1234C136.735 13.1025 145.173 14.3302 148.061 19.3314C154.468 30.4301 131.115 55.9096 95.8989 76.2416C60.6829 96.5735 26.9402 104.059 20.5323 92.9599C17.4296 87.5857 21.3048 78.8397 30.1261 68.939C29.5173 65.7879 29.1864 61.1852 29.1687 59.2329C9.76867 76.9387 0.137986 94.0438 5.8393 103.919C14.6416 119.165 56.9979 111.189 100.445 86.1053Z" fill="white"/>
<path fill-rule="evenodd" clip-rule="evenodd" d="M32.3373 51.9621L32.403 59.2035C32.4193 61.0062 32.7381 65.4077 33.3017 68.3255L33.6051 69.8962L32.541 71.0906C28.2558 75.9001 25.3399 80.25 23.8492 83.8765C22.3364 87.5567 22.5067 89.9108 23.3334 91.3427C24.1875 92.822 26.2485 94.1854 30.4362 94.6767C34.5504 95.1593 40.0744 94.702 46.7121 93.2296C59.9486 90.2933 76.8782 83.4883 94.2817 73.4405C111.685 63.3926 126.043 52.1336 135.204 42.1385C139.798 37.1264 142.956 32.5711 144.595 28.7668C146.264 24.8945 146.114 22.4279 145.26 20.9486C144.49 19.6164 142.755 18.3775 139.31 17.781C135.894 17.1892 131.286 17.3328 125.667 18.3099L124.177 18.569L123.023 17.5917C121.849 16.598 118.739 14.1128 115.859 12.2502L109.852 8.36547L116.737 6.42165C128.263 3.16715 138.719 1.65645 147.118 2.22578C155.397 2.78696 162.505 5.45343 165.975 11.4641C168.849 16.4403 168.477 22.4492 166.229 28.5188C163.973 34.6126 159.67 41.2445 153.856 48.0115C142.21 61.5694 124.015 76.2316 102.062 88.9063C80.1088 101.581 58.3136 110.007 40.7488 113.314C31.9818 114.965 24.0869 115.376 17.6813 114.283C11.301 113.195 5.9113 110.512 3.03825 105.536C-0.671194 99.111 0.955971 91.0163 5.23724 82.9901C9.59464 74.8212 17.1388 65.8332 26.9884 56.8439L32.3373 51.9621ZM121.742 8.43387C142.397 3.25713 158.182 4.43455 163.174 13.0812C171.977 28.3272 143.892 61.0212 100.445 86.1052C56.9979 111.189 14.6416 119.165 5.8393 103.919C0.450959 94.5859 8.75753 78.7948 26.0631 62.1422C27.0683 61.175 28.1038 60.2048 29.1687 59.2329C29.1772 60.1702 29.2579 61.7185 29.4069 63.4237C29.5682 65.2702 29.8096 67.3007 30.1261 68.939C21.3048 78.8397 17.4296 87.5857 20.5323 92.9599C26.9402 104.059 60.6829 96.5735 95.8988 76.2415C131.115 55.9096 154.468 30.43 148.061 19.3314C145.173 14.3301 136.735 13.1024 125.113 15.1233C124.352 14.4795 122.835 13.2521 121.071 11.945C119.973 11.1318 118.781 10.2878 117.615 9.53433C119.011 9.14037 120.387 8.77345 121.742 8.43387Z" fill="#FFC93E"/>
<path fill-rule="evenodd" clip-rule="evenodd" d="M159.94 11.464C168.742 26.71 140.657 59.4039 97.2104 84.488C61.2283 105.262 25.9942 114.302 9.94891 108.134C24.027 117.191 61.8045 108.414 100.445 86.1052C143.892 61.0211 171.977 28.3272 163.174 13.0812C161.662 10.4617 159.159 8.52777 155.831 7.24829C157.582 8.37483 158.966 9.77732 159.94 11.464ZM122.899 13.3356C123.853 14.0793 124.633 14.7173 125.113 15.1233C132.378 13.86 138.399 13.8661 142.597 15.2699C138.765 12.4697 131.823 11.9082 122.899 13.3356ZM29.539 64.7977C28.6255 65.5991 27.6356 66.5136 26.8917 67.3217C20.0505 74.7536 14.1952 85.9685 17.298 91.3426C18.3805 93.2176 20.2431 94.5622 22.7612 95.4041C21.829 94.723 21.0806 93.9094 20.5323 92.9598C17.4296 87.5856 21.3048 78.8396 30.1261 68.9389C29.8867 67.6998 29.6903 66.2363 29.539 64.7977Z" fill="#FFC93E"/>
<path fill-rule="evenodd" clip-rule="evenodd" d="M144.259 8.84097C140.297 8.59178 135.921 9.04859 131.897 9.78326C131.457 9.86347 131.036 9.57235 130.956 9.13304C130.876 8.69373 131.167 8.27258 131.606 8.19237C135.702 7.44462 140.22 6.96653 144.361 7.22697C148.482 7.48621 152.35 8.48434 155.023 10.8029C155.36 11.0955 155.397 11.6062 155.104 11.9436C154.811 12.2809 154.301 12.3172 153.963 12.0246C151.684 10.0474 148.24 9.09137 144.259 8.84097Z" fill="#FFC93E"/>
<path fill-rule="evenodd" clip-rule="evenodd" d="M63.8418 99.2668C64.2139 100.079 63.8574 101.039 63.0454 101.411C49.1896 107.761 32.2117 109.674 25.4193 109.845C24.5264 109.868 23.7843 109.162 23.7618 108.269C23.7392 107.377 24.4448 106.635 25.3376 106.612C31.887 106.447 48.3849 104.572 61.6978 98.4705C62.5097 98.0983 63.4696 98.4548 63.8418 99.2668Z" fill="white"/>
<path d="M122.301 46.3856C122.301 48.0045 120.989 49.3168 119.37 49.3168C117.751 49.3168 116.439 48.0045 116.439 46.3856C116.439 44.7668 117.751 43.4545 119.37 43.4545C120.989 43.4545 122.301 44.7668 122.301 46.3856Z" fill="#FFC93E"/>
<path d="M73.809 19.7801C73.809 21.399 72.4967 22.7113 70.8779 22.7113C69.259 22.7113 67.9467 21.399 67.9467 19.7801C67.9467 18.1613 69.259 16.849 70.8779 16.849C72.4967 16.849 73.809 18.1613 73.809 19.7801Z" fill="#FFC93E"/>
<path d="M52.4666 42.1405C52.4666 43.7593 51.1543 45.0717 49.5354 45.0717C47.9166 45.0717 46.6043 43.7593 46.6043 42.1405C46.6043 40.5217 47.9166 39.2094 49.5354 39.2094C51.1543 39.2094 52.4666 40.5217 52.4666 42.1405Z" fill="#FFC93E"/>
<path d="M66.9202 71.6542C66.9202 74.1662 64.8838 76.2025 62.3719 76.2025C59.8599 76.2025 57.8235 74.1662 57.8235 71.6542C57.8235 69.1422 59.8599 67.1058 62.3719 67.1058C64.8838 67.1058 66.9202 69.1422 66.9202 71.6542Z" fill="#FFC93E"/>
<path d="M87.3688 41.8373C87.3688 44.3493 85.3325 46.3856 82.8205 46.3856C80.3085 46.3856 78.2722 44.3493 78.2722 41.8373C78.2722 39.3253 80.3085 37.2889 82.8205 37.2889C85.3325 37.2889 87.3688 39.3253 87.3688 41.8373Z" fill="#FFC93E"/>
<path d="M109.815 22.7113C109.815 25.2233 107.779 27.2596 105.267 27.2596C102.755 27.2596 100.718 25.2233 100.718 22.7113C100.718 20.1993 102.755 18.163 105.267 18.163C107.779 18.163 109.815 20.1993 109.815 22.7113Z" fill="#FFC93E"/>
<path d="M102.48 67.1058C102.48 69.6178 100.444 71.6542 97.9317 71.6542C95.4197 71.6542 93.3834 69.6178 93.3834 67.1058C93.3834 64.5939 95.4197 62.5575 97.9317 62.5575C100.444 62.5575 102.48 64.5939 102.48 67.1058Z" fill="#FFC93E"/>
</svg>
