<svg width="95" height="92" viewBox="0 0 95 92" fill="none" xmlns="http://www.w3.org/2000/svg">
<rect width="95" height="92" fill="white"/>
<path d="M45.4212 13.3975C46.341 10.6797 50.1849 10.6797 51.1047 13.3975L57.5108 32.3284C57.9231 33.5468 59.0663 34.3668 60.3525 34.3668H80.8157C83.7513 34.3668 84.9397 38.1476 82.5321 39.8272L66.1896 51.2278C65.0952 51.9913 64.6366 53.3859 65.0644 54.6499L71.3556 73.2413C72.2837 75.9839 69.1722 78.3199 66.7975 76.6634L49.9794 64.9309C48.9482 64.2116 47.5777 64.2116 46.5465 64.9309L29.7284 76.6634C27.3537 78.3199 24.2422 75.9839 25.1703 73.2413L31.4615 54.6499C31.8893 53.3859 31.4307 51.9913 30.3363 51.2278L13.9938 39.8272C11.5862 38.1476 12.7746 34.3668 15.7103 34.3668H36.1734C37.4596 34.3668 38.6028 33.5468 39.0151 32.3284L45.4212 13.3975Z" fill="#E4DCD7"/>
</svg>
