<svg width="77" height="68" viewBox="0 0 77 68" fill="none" xmlns="http://www.w3.org/2000/svg">
<path d="M35.6877 2.7208C36.6471 0.0923124 40.3645 0.0923141 41.324 2.7208L48.5053 22.3954C48.9374 23.5792 50.0633 24.3668 51.3235 24.3668H73.7497C76.7396 24.3668 77.8895 28.2621 75.3789 29.8858L57.8591 41.2168C56.6836 41.9771 56.1901 43.4494 56.6702 44.7645L63.4993 63.4741C64.4861 66.1777 61.4687 68.5848 59.0519 67.0218L40.135 54.7873C39.1435 54.146 37.8681 54.146 36.8766 54.7872L17.9597 67.0218C15.543 68.5848 12.5255 66.1777 13.5124 63.4741L20.3415 44.7645C20.8215 43.4494 20.3281 41.9771 19.1525 41.2168L1.63271 29.8858C-0.877838 28.2621 0.272054 24.3668 3.26191 24.3668H25.6882C26.9484 24.3668 28.0742 23.5792 28.5063 22.3954L35.6877 2.7208Z" fill="#E4DCD7"/>
</svg>
