<svg width="27" height="27" viewBox="0 0 27 27" fill="none" xmlns="http://www.w3.org/2000/svg">
<path d="M22.7812 0H4.21875C1.8888 0 0 1.8888 0 4.21875V22.7812C0 25.1112 1.8888 27 4.21875 27H22.7812C25.1112 27 27 25.1112 27 22.7812V4.21875C27 1.8888 25.1112 0 22.7812 0Z" fill="#0088CC"/>
<path d="M6.8343 13.2539C10.4582 11.675 12.8747 10.6341 14.0837 10.1312C17.536 8.69533 18.2533 8.4459 18.7208 8.43758C18.8237 8.43586 19.0536 8.46134 19.2025 8.58219C19.3283 8.68424 19.3629 8.82209 19.3795 8.91884C19.396 9.01559 19.4166 9.23599 19.4002 9.4082C19.2132 11.3738 18.4037 16.1439 17.9919 18.3454C17.8176 19.277 17.4745 19.5893 17.1423 19.6199C16.4205 19.6863 15.8723 19.1428 15.1731 18.6845C14.079 17.9673 13.4609 17.5208 12.3989 16.821C11.1716 16.0122 11.9672 15.5677 12.6667 14.8412C12.8497 14.6511 16.0304 11.758 16.0919 11.4956C16.0996 11.4628 16.1068 11.3404 16.0341 11.2758C15.9614 11.2112 15.8541 11.2333 15.7767 11.2509C15.667 11.2758 13.9192 12.431 10.5333 14.7166C10.0372 15.0573 9.58781 15.2233 9.1852 15.2146C8.74135 15.205 7.88756 14.9636 7.25286 14.7573C6.47437 14.5042 5.85564 14.3704 5.90952 13.9407C5.93758 13.7168 6.24584 13.4879 6.8343 13.2539Z" fill="white"/>
</svg>
