<svg width="143" height="123" viewBox="0 0 143 123" fill="none" xmlns="http://www.w3.org/2000/svg">
<path d="M9.12973 48.3638C9.12973 39.757 16.4296 32.7798 25.4343 32.7798H126.507C135.512 32.7798 142.811 39.757 142.811 48.3638V106.853C142.811 115.46 135.512 122.437 126.507 122.437H25.4343C16.4295 122.437 9.12973 115.46 9.12973 106.853V48.3638Z" fill="#FFC93E"/>
<path d="M2.90594 37.2204C2.90594 31.4825 7.7725 26.8311 13.7757 26.8311H125.718C131.721 26.8311 136.588 31.4825 136.588 37.2204V106.099C136.588 111.837 131.721 116.489 125.718 116.489H13.7757C7.77249 116.489 2.90594 111.837 2.90594 106.099V37.2204Z" fill="white"/>
<path fill-rule="evenodd" clip-rule="evenodd" d="M13.7757 24.2336H125.718C133.222 24.2336 139.305 30.048 139.305 37.2203V106.099C139.305 113.271 133.222 119.086 125.718 119.086H13.7757C6.27169 119.086 0.188507 113.271 0.188507 106.099V37.2203C0.188507 30.048 6.2717 24.2336 13.7757 24.2336ZM13.7757 26.831C7.7725 26.831 2.90594 31.4824 2.90594 37.2203V106.099C2.90594 111.837 7.77249 116.488 13.7757 116.488H125.718C131.721 116.488 136.588 111.837 136.588 106.099V37.2203C136.588 31.4824 131.721 26.831 125.718 26.831H13.7757Z" fill="#FFC93E"/>
<path d="M54.7384 34.2669C54.7384 31.9397 56.7122 30.0532 59.1469 30.0532H80.3467C82.7814 30.0532 84.7552 31.9397 84.7552 34.2669C84.7552 36.594 82.7814 38.4805 80.3467 38.4805H59.1469C56.7122 38.4805 54.7384 36.594 54.7384 34.2669Z" fill="#FFC93E"/>
<path fill-rule="evenodd" clip-rule="evenodd" d="M23.1223 50.0114H54.3928C58.8952 50.0114 62.5451 53.4999 62.5451 57.8033V97.5723C62.5451 101.876 58.8952 105.364 54.3928 105.364H23.1223C18.6199 105.364 14.97 101.876 14.97 97.5723V57.8033C14.97 53.5 18.6199 50.0114 23.1223 50.0114ZM23.1223 52.6087C20.1207 52.6087 17.6874 54.9344 17.6874 57.8033V97.5723C17.6874 100.441 20.1207 102.767 23.1223 102.767H54.3928C57.3944 102.767 59.8277 100.441 59.8277 97.5723V57.8033C59.8277 54.9344 57.3944 52.6087 54.3928 52.6087H23.1223Z" fill="#FFC93E"/>
<path fill-rule="evenodd" clip-rule="evenodd" d="M28.8671 85.6887C29.6076 87.3383 31.1808 88.5522 33.2664 89.3828C35.5203 90.2804 38.2041 90.655 40.5369 90.655C42.8697 90.655 45.5535 90.2804 47.8074 89.3828C49.8929 88.5522 51.4662 87.3383 52.2067 85.6887C51.4474 84.1024 49.594 82.8629 47.227 81.9928C44.7199 81.0711 42.0144 80.7072 40.5369 80.7072C39.0594 80.7072 36.3539 81.0711 33.8468 81.9928C31.4798 82.8629 29.6264 84.1024 28.8671 85.6887ZM32.8713 79.5685C35.6963 78.53 38.7331 78.1099 40.5369 78.1099C42.3407 78.1099 45.3775 78.53 48.2025 79.5685C50.9708 80.5862 53.9315 82.3465 54.9511 85.2704C55.0441 85.537 55.0441 85.8252 54.9511 86.0918C53.9607 88.9317 51.5166 90.7194 48.8526 91.7803C46.1846 92.8429 43.1261 93.2523 40.5369 93.2523C37.9477 93.2523 34.8892 92.8429 32.2212 91.7803C29.5572 90.7194 27.1131 88.9317 26.1226 86.0918C26.0297 85.8252 26.0297 85.537 26.1226 85.2704C27.1423 82.3465 30.103 80.5862 32.8713 79.5685Z" fill="#FFC93E"/>
<path fill-rule="evenodd" clip-rule="evenodd" d="M35.4529 61.8373C34.9022 61.0358 33.9308 60.5869 32.9259 60.6777C31.8841 60.7719 30.9914 61.4295 30.6308 62.3685C29.7517 64.6576 29.9652 66.8221 31.3971 68.4624C31.7321 68.8461 32.1062 69.1677 32.4987 69.4371C32.3292 70.0568 32.2389 70.7069 32.2389 71.3762C32.2389 75.6041 35.8248 79.0314 40.2482 79.0314C44.6186 79.0314 48.1714 75.6857 48.2559 71.5278C48.2973 71.1285 48.3557 70.3235 48.2618 69.638C47.9065 66.625 46.3856 64.5281 44.0843 63.3783C41.997 62.3355 39.5951 62.2426 37.6989 62.3432C36.7433 62.394 36.1392 62.2112 35.806 62.0553C35.5819 61.9505 35.4775 61.8586 35.4529 61.8373ZM45.5646 69.9558C45.0459 65.4323 41.3505 64.7507 37.8497 64.9366C36.9565 64.984 36.1978 64.8941 35.5661 64.7294C34.2169 64.3778 33.4467 63.6856 33.1818 63.2635C32.5727 64.8494 32.8007 65.9604 33.4197 66.7225C33.4992 66.8204 33.5852 66.9125 33.6767 66.9992C34.3453 67.6324 35.3082 67.9723 36.196 68.123C35.601 68.7994 35.188 69.6268 35.0289 70.5365C34.9812 70.8096 34.9564 71.0901 34.9564 71.3762C34.9564 74.1696 37.3256 76.4341 40.2482 76.4341C43.1708 76.4341 45.54 74.1696 45.54 71.3762C45.5755 71.0858 45.63 70.3953 45.5646 69.9558Z" fill="#FFC93E"/>
<path fill-rule="evenodd" clip-rule="evenodd" d="M70.4632 90.1465C70.4632 89.4293 71.0715 88.8479 71.8219 88.8479H99.5673C100.318 88.8479 100.926 89.4293 100.926 90.1465C100.926 90.8638 100.318 91.4452 99.5673 91.4452H71.8219C71.0715 91.4452 70.4632 90.8638 70.4632 90.1465Z" fill="#FFC93E"/>
<path fill-rule="evenodd" clip-rule="evenodd" d="M70.4632 82.2286C70.4632 81.5113 71.0715 80.9299 71.8219 80.9299H122.65C123.4 80.9299 124.008 81.5113 124.008 82.2286C124.008 82.9458 123.4 83.5272 122.65 83.5272H71.8219C71.0715 83.5272 70.4632 82.9458 70.4632 82.2286Z" fill="#FFC93E"/>
<path fill-rule="evenodd" clip-rule="evenodd" d="M70.4632 74.2969C70.4632 73.5797 71.0715 72.9982 71.8219 72.9982H122.65C123.4 72.9982 124.008 73.5797 124.008 74.2969C124.008 75.0141 123.4 75.5956 122.65 75.5956H71.8219C71.0715 75.5956 70.4632 75.0141 70.4632 74.2969Z" fill="#FFC93E"/>
<path fill-rule="evenodd" clip-rule="evenodd" d="M70.4627 66.3653C70.4627 65.6481 71.071 65.0666 71.8214 65.0666H122.649C123.399 65.0666 124.008 65.6481 124.008 66.3653C124.008 67.0825 123.399 67.6639 122.649 67.6639H71.8214C71.071 67.6639 70.4627 67.0825 70.4627 66.3653Z" fill="#FFC93E"/>
<path d="M70.7193 54.4059C70.7193 52.8659 72.0255 51.6174 73.6367 51.6174H121.352C122.964 51.6174 124.27 52.8659 124.27 54.4059C124.27 55.9459 122.964 57.1943 121.352 57.1943H73.6367C72.0255 57.1943 70.7193 55.9459 70.7193 54.4059Z" fill="#FFC93E"/>
<path d="M62.4209 5.75749C62.4209 4.32302 63.6375 3.16016 65.1383 3.16016H74.3553C75.8561 3.16016 77.0727 4.32302 77.0727 5.75748V33.8951H62.4209V5.75749Z" fill="white"/>
<path fill-rule="evenodd" clip-rule="evenodd" d="M79.7902 36.4925H59.7035V5.75753C59.7035 2.8886 62.1367 0.562866 65.1383 0.562866H74.3553C77.3569 0.562866 79.7902 2.88859 79.7902 5.75752V36.4925ZM65.1383 3.1602C63.6375 3.1602 62.4209 4.32306 62.4209 5.75753V33.8952H77.0727V5.75752C77.0727 4.32306 75.8561 3.1602 74.3553 3.1602H65.1383Z" fill="#FFC93E"/>
<path d="M73.507 10.1005C73.507 12.0854 71.8235 13.6945 69.7468 13.6945C67.6701 13.6945 65.9866 12.0854 65.9866 10.1005C65.9866 8.11556 67.6701 6.50647 69.7468 6.50647C71.8235 6.50647 73.507 8.11556 73.507 10.1005Z" fill="#FFC93E"/>
</svg>
