<svg width="27" height="27" viewBox="0 0 27 27" fill="none" xmlns="http://www.w3.org/2000/svg">
<path d="M22.7812 0H4.21875C1.8888 0 0 1.8888 0 4.21875V22.7812C0 25.1112 1.8888 27 4.21875 27H22.7812C25.1112 27 27 25.1112 27 22.7812V4.21875C27 1.8888 25.1112 0 22.7812 0Z" fill="#EE6666"/>
<path d="M19.9125 10.2093C19.7438 9.61865 19.3219 9.19678 18.7313 9.02803C17.7188 8.7749 13.4156 8.7749 13.4156 8.7749C13.4156 8.7749 9.19688 8.7749 8.10001 9.02803C7.50938 9.19678 7.0875 9.61865 6.91875 10.2093C6.75 11.3062 6.75 13.4999 6.75 13.4999C6.75 13.4999 6.75 15.6937 7.00313 16.7905C7.17188 17.3812 7.59375 17.803 8.18437 17.9718C9.19687 18.2249 13.5 18.2249 13.5 18.2249C13.5 18.2249 17.7187 18.2249 18.8156 17.9718C19.4062 17.803 19.8281 17.3812 19.9969 16.7905C20.25 15.6937 20.25 13.4999 20.25 13.4999C20.25 13.4999 20.25 11.3062 19.9125 10.2093ZM12.15 15.5249V11.4749L15.6938 13.4999L12.15 15.5249Z" fill="white"/>
</svg>
