<svg width="128" height="128" viewBox="0 0 128 128" fill="none" xmlns="http://www.w3.org/2000/svg">
<g clip-path="url(#clip0_987_249)">
<rect width="128" height="128" fill="white"/>
<rect width="128" height="128" fill="#EBE6E3"/>
<rect x="27.2939" y="89.8762" width="6.65999" height="14.5824" rx="3.33" fill="#FFC93E"/>
<rect x="93.3682" y="89.8762" width="6.66" height="14.5824" rx="3.33" fill="#FFC93E"/>
<rect x="12.1299" y="22.9043" width="103.74" height="75.9391" rx="9" fill="white" stroke="#FFC93E" stroke-width="2" stroke-linecap="round" stroke-linejoin="round"/>
<rect x="15.9027" y="27.2058" width="95.9507" height="67.9954" rx="6" stroke="#FFC93E" stroke-width="2" stroke-linecap="round" stroke-linejoin="round"/>
<path d="M36.8377 66V63.39L43.8577 55.218L44.3797 56.694H37.0177V53.4H48.1237V56.01L41.1037 64.182L40.5817 62.706H48.4117V66H36.8377ZM54.7211 66.18C53.6051 66.18 52.6151 65.964 51.7511 65.532C50.8991 65.088 50.2271 64.482 49.7351 63.714C49.2431 62.946 48.9971 62.064 48.9971 61.068C48.9971 60.072 49.2431 59.19 49.7351 58.422C50.2271 57.654 50.8991 57.054 51.7511 56.622C52.6151 56.19 53.6051 55.974 54.7211 55.974C55.8371 55.974 56.8271 56.19 57.6911 56.622C58.5551 57.054 59.2271 57.654 59.7071 58.422C60.1991 59.19 60.4451 60.072 60.4451 61.068C60.4451 62.064 60.1991 62.946 59.7071 63.714C59.2271 64.482 58.5551 65.088 57.6911 65.532C56.8271 65.964 55.8371 66.18 54.7211 66.18ZM54.7211 63.012C55.0211 63.012 55.2911 62.94 55.5311 62.796C55.7711 62.652 55.9631 62.436 56.1071 62.148C56.2511 61.848 56.3231 61.488 56.3231 61.068C56.3231 60.636 56.2511 60.282 56.1071 60.006C55.9631 59.718 55.7711 59.502 55.5311 59.358C55.2911 59.214 55.0211 59.142 54.7211 59.142C54.4211 59.142 54.1511 59.214 53.9111 59.358C53.6711 59.502 53.4791 59.718 53.3351 60.006C53.1911 60.282 53.1191 60.636 53.1191 61.068C53.1191 61.488 53.1911 61.848 53.3351 62.148C53.4791 62.436 53.6711 62.652 53.9111 62.796C54.1511 62.94 54.4211 63.012 54.7211 63.012ZM66.9204 66.18C65.8044 66.18 64.8144 65.964 63.9504 65.532C63.0984 65.088 62.4264 64.482 61.9344 63.714C61.4424 62.946 61.1964 62.064 61.1964 61.068C61.1964 60.072 61.4424 59.19 61.9344 58.422C62.4264 57.654 63.0984 57.054 63.9504 56.622C64.8144 56.19 65.8044 55.974 66.9204 55.974C68.0364 55.974 69.0264 56.19 69.8904 56.622C70.7544 57.054 71.4264 57.654 71.9064 58.422C72.3984 59.19 72.6444 60.072 72.6444 61.068C72.6444 62.064 72.3984 62.946 71.9064 63.714C71.4264 64.482 70.7544 65.088 69.8904 65.532C69.0264 65.964 68.0364 66.18 66.9204 66.18ZM66.9204 63.012C67.2204 63.012 67.4904 62.94 67.7304 62.796C67.9704 62.652 68.1624 62.436 68.3064 62.148C68.4504 61.848 68.5224 61.488 68.5224 61.068C68.5224 60.636 68.4504 60.282 68.3064 60.006C68.1624 59.718 67.9704 59.502 67.7304 59.358C67.4904 59.214 67.2204 59.142 66.9204 59.142C66.6204 59.142 66.3504 59.214 66.1104 59.358C65.8704 59.502 65.6784 59.718 65.5344 60.006C65.3904 60.282 65.3184 60.636 65.3184 61.068C65.3184 61.488 65.3904 61.848 65.5344 62.148C65.6784 62.436 65.8704 62.652 66.1104 62.796C66.3504 62.94 66.6204 63.012 66.9204 63.012ZM86.9496 55.974C87.6936 55.974 88.3596 56.13 88.9476 56.442C89.5476 56.742 90.0156 57.216 90.3516 57.864C90.6996 58.512 90.8736 59.352 90.8736 60.384V66H86.8056V61.086C86.8056 60.474 86.7036 60.042 86.4996 59.79C86.2956 59.526 86.0316 59.394 85.7076 59.394C85.4676 59.394 85.2516 59.454 85.0596 59.574C84.8676 59.694 84.7116 59.886 84.5916 60.15C84.4836 60.402 84.4296 60.75 84.4296 61.194V66H80.3616V61.086C80.3616 60.474 80.2656 60.042 80.0736 59.79C79.8816 59.526 79.6116 59.394 79.2636 59.394C79.0236 59.394 78.8076 59.454 78.6156 59.574C78.4236 59.694 78.2676 59.886 78.1476 60.15C78.0396 60.402 77.9856 60.75 77.9856 61.194V66H73.9176V56.154H77.7876V58.98L76.9956 58.188C77.3676 57.444 77.8656 56.892 78.4896 56.532C79.1136 56.16 79.8096 55.974 80.5776 55.974C81.4416 55.974 82.2036 56.202 82.8636 56.658C83.5356 57.102 83.9856 57.81 84.2136 58.782L82.9716 58.584C83.3316 57.768 83.8536 57.132 84.5376 56.676C85.2336 56.208 86.0376 55.974 86.9496 55.974Z" fill="#FFC93E"/>
</g>
<defs>
<clipPath id="clip0_987_249">
<rect width="128" height="128" fill="white"/>
</clipPath>
</defs>
</svg>
