<svg width="200" height="150" viewBox="0 0 200 150" fill="none" xmlns="http://www.w3.org/2000/svg">
<g clip-path="url(#clip0_1741_507)">
<path d="M12.2549 23.3398C12.2549 17.5902 16.6728 12.9292 22.1227 12.9292H189.205C194.655 12.9292 199.073 17.5902 199.073 23.3398V138.856C199.073 144.606 194.655 149.267 189.205 149.267H22.1227C16.6728 149.267 12.2549 144.606 12.2549 138.856V23.3398Z" fill="#FFC93E"/>
<path d="M3.28928 13.8808C3.28928 8.13121 7.70726 3.47021 13.1572 3.47021H180.239C185.689 3.47021 190.107 8.1312 190.107 13.8808V129.397C190.107 135.147 185.689 139.808 180.239 139.808H13.1572C7.70728 139.808 3.28928 135.147 3.28928 129.397V13.8808Z" fill="white"/>
<path fill-rule="evenodd" clip-rule="evenodd" d="M13.1572 0H180.239C187.506 0 193.396 6.21462 193.396 13.8808V129.397C193.396 137.063 187.506 143.278 180.239 143.278H13.1572C5.89066 143.278 0 137.064 0 129.397V13.8808C0 6.21465 5.89064 0 13.1572 0ZM13.1572 3.47019C7.70726 3.47019 3.28928 8.13118 3.28928 13.8808V129.397C3.28928 135.147 7.70728 139.808 13.1572 139.808H180.239C185.689 139.808 190.107 135.147 190.107 129.397V13.8808C190.107 8.13116 185.689 3.47019 180.239 3.47019H13.1572Z" fill="#FFC93E"/>
<path d="M14.8662 35.7902C14.8662 31.9572 17.8115 28.8499 21.4447 28.8499H97.9431C101.576 28.8499 104.521 31.9572 104.521 35.7902V79.5892C104.521 83.4222 101.576 86.5296 97.9431 86.5296H21.4447C17.8115 86.5296 14.8662 83.4222 14.8662 79.5892V35.7902Z" fill="#FFC93E"/>
<path fill-rule="evenodd" clip-rule="evenodd" d="M13.5884 95.1137C13.5803 93.1972 15.0463 91.6366 16.8629 91.6279L101.475 91.2261C103.292 91.2175 104.772 92.7641 104.779 94.6807C104.788 96.5972 103.321 98.1578 101.505 98.1664L16.8925 98.5682C15.0759 98.5769 13.5966 97.0302 13.5884 95.1137Z" fill="#FFC93E"/>
<path fill-rule="evenodd" clip-rule="evenodd" d="M14.1123 105.093C14.1123 104.135 14.8487 103.358 15.757 103.358H80.7572C81.6656 103.358 82.4019 104.135 82.4019 105.093C82.4019 106.052 81.6656 106.829 80.7572 106.829H15.757C14.8487 106.829 14.1123 106.052 14.1123 105.093Z" fill="#FFC93E"/>
<path fill-rule="evenodd" clip-rule="evenodd" d="M14.1123 122.347C14.1123 121.388 14.8487 120.611 15.757 120.611H80.7572C81.6656 120.611 82.4019 121.388 82.4019 122.347C82.4019 123.305 81.6656 124.082 80.7572 124.082H15.757C14.8487 124.082 14.1123 123.305 14.1123 122.347Z" fill="#FFC93E"/>
<path fill-rule="evenodd" clip-rule="evenodd" d="M14.1123 111.558C14.1123 110.6 14.8487 109.823 15.757 109.823H49.0976C50.006 109.823 50.7423 110.6 50.7423 111.558C50.7423 112.516 50.006 113.293 49.0976 113.293H15.757C14.8487 113.293 14.1123 112.516 14.1123 111.558Z" fill="#FFC93E"/>
<path fill-rule="evenodd" clip-rule="evenodd" d="M14.1123 127.667C14.1123 126.709 14.8487 125.932 15.757 125.932H40.1321C41.0404 125.932 41.7768 126.709 41.7768 127.667C41.7768 128.625 41.0404 129.402 40.1321 129.402H15.757C14.8487 129.402 14.1123 128.625 14.1123 127.667Z" fill="#FFC93E"/>
<path fill-rule="evenodd" clip-rule="evenodd" d="M153.918 32.1005C153.918 31.1422 154.655 30.3654 155.563 30.3654H182.6C183.508 30.3654 184.245 31.1422 184.245 32.1005C184.245 33.0587 183.508 33.8355 182.6 33.8355H155.563C154.655 33.8355 153.918 33.0587 153.918 32.1005Z" fill="#FFC93E"/>
<path fill-rule="evenodd" clip-rule="evenodd" d="M153.919 39.1783C153.919 38.2201 154.656 37.4432 155.564 37.4432H170.322C171.231 37.4432 171.967 38.2201 171.967 39.1783C171.967 40.1366 171.231 40.9134 170.322 40.9134H155.564C154.656 40.9134 153.919 40.1366 153.919 39.1783Z" fill="#FFC93E"/>
<path fill-rule="evenodd" clip-rule="evenodd" d="M153.918 102.397C153.918 101.438 154.655 100.662 155.563 100.662H182.6C183.508 100.662 184.245 101.438 184.245 102.397C184.245 103.355 183.508 104.132 182.6 104.132H155.563C154.655 104.132 153.918 103.355 153.918 102.397Z" fill="#FFC93E"/>
<path fill-rule="evenodd" clip-rule="evenodd" d="M153.919 109.475C153.919 108.516 154.656 107.74 155.564 107.74H170.322C171.231 107.74 171.967 108.516 171.967 109.475C171.967 110.433 171.231 111.21 170.322 111.21H155.564C154.656 111.21 153.919 110.433 153.919 109.475Z" fill="#FFC93E"/>
<path fill-rule="evenodd" clip-rule="evenodd" d="M153.918 64.5613C153.918 63.603 154.655 62.8262 155.563 62.8262H182.6C183.508 62.8262 184.245 63.603 184.245 64.5613C184.245 65.5195 183.508 66.2964 182.6 66.2964H155.563C154.655 66.2964 153.918 65.5195 153.918 64.5613Z" fill="#FFC93E"/>
<path fill-rule="evenodd" clip-rule="evenodd" d="M153.919 71.6391C153.919 70.6809 154.656 69.9041 155.564 69.9041H170.322C171.231 69.9041 171.967 70.6809 171.967 71.6391C171.967 72.5974 171.231 73.3742 170.322 73.3742H155.564C154.656 73.3742 153.919 72.5974 153.919 71.6391Z" fill="#FFC93E"/>
<path fill-rule="evenodd" clip-rule="evenodd" d="M118.177 26.8572H144.849C148.483 26.8572 151.428 29.9645 151.428 33.7976V52.0155C151.428 55.8486 148.483 58.9559 144.849 58.9559H118.177C114.544 58.9559 111.599 55.8486 111.599 52.0155V33.7976C111.599 29.9645 114.544 26.8572 118.177 26.8572ZM118.177 30.3274C116.361 30.3274 114.888 31.881 114.888 33.7976V52.0155C114.888 53.9321 116.361 55.4857 118.177 55.4857H144.849C146.666 55.4857 148.139 53.9321 148.139 52.0155V33.7976C148.139 31.881 146.666 30.3274 144.849 30.3274H118.177Z" fill="#FFC93E"/>
<path d="M67.7265 54.9643L59.852 49.0299C57.675 47.3892 54.6508 49.031 54.6508 51.8536V63.6034C54.6508 66.4109 57.6463 68.0563 59.8263 66.4463L67.7009 60.6309C69.5607 59.2575 69.5738 56.3564 67.7265 54.9643Z" fill="white"/>
<path fill-rule="evenodd" clip-rule="evenodd" d="M16.7067 11.1917H177.118C179.951 11.1917 182.247 13.6147 182.247 16.6035C182.247 19.5926 179.951 22.0156 177.118 22.0156H16.7067C13.8736 22.0156 11.5769 19.5926 11.5769 16.6035C11.5769 13.6147 13.8736 11.1917 16.7067 11.1917ZM16.7067 14.6618C15.6902 14.6618 14.8662 15.5311 14.8662 16.6035C14.8662 17.6759 15.6902 18.5454 16.7067 18.5454H177.118C178.134 18.5454 178.958 17.6759 178.958 16.6035C178.958 15.5311 178.134 14.6618 177.118 14.6618H16.7067Z" fill="#FFC93E"/>
<path fill-rule="evenodd" clip-rule="evenodd" d="M118.177 60.6544H144.849C148.483 60.6544 151.428 63.7617 151.428 67.5948V85.8128C151.428 89.6458 148.483 92.7531 144.849 92.7531H118.177C114.544 92.7531 111.599 89.6458 111.599 85.8128V67.5948C111.599 63.7617 114.544 60.6544 118.177 60.6544ZM118.177 64.1246C116.361 64.1246 114.888 65.6783 114.888 67.5948V85.8128C114.888 87.7293 116.361 89.283 118.177 89.283H144.849C146.666 89.283 148.139 87.7293 148.139 85.8128V67.5948C148.139 65.6783 146.666 64.1246 144.849 64.1246H118.177Z" fill="#FFC93E"/>
<path fill-rule="evenodd" clip-rule="evenodd" d="M118.177 96.6226H144.849C148.483 96.6226 151.428 99.7299 151.428 103.563V121.781C151.428 125.614 148.483 128.721 144.849 128.721H118.177C114.544 128.721 111.599 125.614 111.599 121.781V103.563C111.599 99.7299 114.544 96.6226 118.177 96.6226ZM118.177 100.093C116.361 100.093 114.888 101.646 114.888 103.563V121.781C114.888 123.697 116.361 125.251 118.177 125.251H144.849C146.666 125.251 148.139 123.697 148.139 121.781V103.563C148.139 101.646 146.666 100.093 144.849 100.093H118.177Z" fill="#FFC93E"/>
<path fill-rule="evenodd" clip-rule="evenodd" d="M130.1 44.295C130.1 44.9969 130.849 45.4082 131.394 45.0057L133.694 43.3077C134.159 42.9643 134.162 42.2391 133.7 41.891L131.401 40.1582C130.857 39.7481 130.1 40.1585 130.1 40.8642V44.295ZM133.313 37.3345L135.612 39.0673C137.921 40.8075 137.905 44.4338 135.58 46.1506L133.281 47.8486C130.555 49.8611 126.811 47.8043 126.811 44.295V40.8642C126.811 37.3359 130.591 35.2837 133.313 37.3345Z" fill="#FFC93E"/>
<path fill-rule="evenodd" clip-rule="evenodd" d="M130.1 79.432C130.1 80.1338 130.849 80.5452 131.394 80.1427L133.694 78.4447C134.159 78.1013 134.162 77.376 133.7 77.028L131.401 75.2952C130.857 74.885 130.1 75.2955 130.1 76.0011V79.432ZM133.313 72.4715L135.612 74.2043C137.921 75.9444 137.905 79.5707 135.58 81.2876L133.281 82.9856C130.555 84.9981 126.811 82.9413 126.811 79.432V76.0011C126.811 72.4729 130.591 70.4206 133.313 72.4715Z" fill="#FFC93E"/>
<path fill-rule="evenodd" clip-rule="evenodd" d="M130.1 114.94C130.1 115.641 130.849 116.053 131.394 115.65L133.694 113.952C134.159 113.609 134.162 112.884 133.7 112.536L131.401 110.803C130.857 110.393 130.1 110.803 130.1 111.509V114.94ZM133.313 107.979L135.612 109.712C137.921 111.452 137.905 115.078 135.58 116.795L133.281 118.493C130.555 120.506 126.811 118.449 126.811 114.94V111.509C126.811 107.98 130.591 105.928 133.313 107.979Z" fill="#FFC93E"/>
</g>
<defs>
<clipPath id="clip0_1741_507">
<rect width="200" height="150" fill="white"/>
</clipPath>
</defs>
</svg>
